<svg width="48" height="48" viewBox="0 0 48 48" fill="none" xmlns="http://www.w3.org/2000/svg">
<path d="M42 42H8C7.46957 42 6.96086 41.7893 6.58579 41.4142C6.21071 41.0391 6 40.5304 6 40V6H10V38H42V42ZM16.746 32L14 29.312L23.712 19.8C24.0797 19.4426 24.5722 19.2427 25.085 19.2427C25.5978 19.2427 26.0903 19.4426 26.458 19.8L30.912 24.162L39.254 16L42 18.688L32.288 28.2C31.9203 28.5574 31.4278 28.7573 30.915 28.7573C30.4022 28.7573 29.9097 28.5574 29.542 28.2L25.086 23.836L16.748 32H16.746V32Z" fill="white"/>
</svg>
