<?xml version="1.0" encoding="utf-8"?>
<!-- Generator: Adobe Illustrator 22.1.0, SVG Export Plug-In . SVG Version: 6.00 Build 0)  -->
<svg version="1.1" id="Layer_1" xmlns="http://www.w3.org/2000/svg" xmlns:xlink="http://www.w3.org/1999/xlink" x="0px" y="0px"
	 viewBox="0 0 2000 2000" style="enable-background:new 0 0 2000 2000;" xml:space="preserve">
<style type="text/css">
	.st0{fill:#D13332;}
	.st1{fill:#FFFDFD;}
</style>
<path class="st0" d="M501.8,359.4c8.5-13.2,16.2-25,23.7-36.8c1.1-1.8,1.4-4.1,1.9-6.3c13.7-56,27.4-112,41.1-168.1
	c0.6-2.4,1.2-4.8,1.8-7.2c1-3.9,3.3-6.4,7.5-6.5c3.7,0,6.4,2.9,7.1,7.7c1.1,7.6,2,15.3,3,23c8,64.4,15.5,128.8,24.2,193.1
	c1.8,13.2-0.7,23.1-8.4,33.5c-14.8,20-28.3,40.9-42.6,61.2c-2.9,4.1-2.9,6.7,0.2,10.7c15.4,19.8,30.5,39.9,45.8,59.9
	c1.6,2.1,2.9,4.6,6.2,4.9c14.5,1.5,29,3.2,43.4,4.8c1.8-3.2,1.1-6.3,1.1-9.2c0.1-32.9,0.2-65.7-0.1-98.6c-0.1-7.3,2.6-10.9,9-13.7
	c53.4-23.9,106.6-48,159.9-72.1c2-0.9,4-1.8,6.1-2.4c3-0.9,5.4,0.3,7.3,2.7c1.9,2.4,2.1,5.1,0.5,7.7c-1.2,1.8-2.7,3.5-4.1,5.2
	c-30.2,35.2-60.3,70.5-90.7,105.6c-3.7,4.2-5.3,8.4-5.3,14.1c0.3,21.3,0.1,42.5,0.1,63.8c0,6.7,0.1,6.6,6.6,7.4
	c41.7,4.8,83.3,9.8,125,14.2c6.9,0.7,10,4,12.6,9.8c31.4,70.9,62.9,141.8,94.5,212.6c5.6,12.6,2.1,10.3,16.1,10.5
	c11.6,0.1,23.2-0.3,34.8,0c5.2,0.2,7.7-1.7,9.8-6.4c18.3-41.7,36.9-83.2,55.4-124.8c13.7-30.8,27.5-61.5,40.9-92.3
	c2.7-6.1,6.3-8.6,12.9-9.3c32.9-3.4,65.8-7.4,98.7-11.1c9.3-1.1,18.6-2.3,28-3.2c3.6-0.3,4.7-2,4.6-5.3c-0.1-23.2-0.1-46.4,0-69.6
	c0-3.7-2-6.1-4.2-8.6c-30.4-35.4-60.8-70.8-91.2-106.3c-1.6-1.9-3.4-3.7-4.7-5.8c-1.7-2.8-1.6-5.9,0.6-8.4c2-2.2,4.5-3.2,7.5-2.1
	c1.8,0.6,3.6,1.4,5.3,2.2c53,23.9,106,48,159.2,71.7c7.5,3.3,10.1,7.6,10,15.7c-0.4,32-0.2,64.1-0.2,96.1c0,1.7-0.1,3.3,0,5
	c0.2,5.5,0.3,5.6,5.8,4.9c12.3-1.4,24.7-3,37-4.2c3.4-0.3,5.5-1.7,7.5-4.3c15.5-20.5,30.9-41,46.7-61.3c3.1-4,2.2-6.5-0.3-10
	c-15.9-22.9-31.6-46-47.6-68.8c-3.9-5.6-5.1-10.8-4.2-17.7c5.6-42.1,10.6-84.4,15.8-126.5c3.9-31.8,7.9-63.6,11.8-95.3
	c0.2-1.6,0.5-3.3,0.9-4.9c0.9-3.3,3.2-5.2,6.5-5.4c3.4-0.2,5.8,1.6,7,4.8c0.7,1.8,1.1,3.7,1.6,5.6c13.9,56.8,27.7,113.7,41.5,170.5
	c1.1,4.4,2.7,8.3,5.2,12c6.7,10.1,13.3,20.3,20.1,30.8c3-1.7,3.3-4.7,4.3-7c19.5-46,38.9-92,58.4-138c1.5-3.6,3.1-7.1,4.6-10.6
	c1.5-3.5,4.3-5,8-4.4c3.8,0.6,5.6,3.2,5.7,7c0.1,2.2,0,4.4,0,6.6c0,69.6,0.1,139.2-0.1,208.8c0,6.1,1.5,10.7,5.9,15.4
	C1711.7,550.4,1781,684,1812.5,837c12.3,59.7,17.6,120.2,15.9,181.1c-5.1,189.6-66.9,358.6-187.2,505.1
	c-119.8,146-272.7,240.1-456.8,282.7c-78,18.1-157.1,24-236.9,18.3c-176-12.6-332.8-74.6-469-186.8
	c-123.5-101.7-210.3-229.1-260.5-381.1c-22.7-68.5-35.3-138.9-39.4-211c-13.1-234,74.3-459.5,236-623.5c4.9-5,6.6-9.9,6.6-16.7
	c-0.2-64.3-0.1-128.7-0.1-193c0-2.5-0.2-5,0.2-7.4c0.4-3.3,2.3-5.6,5.7-6.3c3.3-0.6,6.1,0.5,7.7,3.6c1.5,2.9,2.8,6,4.1,9
	c19.8,46.8,39.6,93.5,59.3,140.3C499,353.5,500.1,355.7,501.8,359.4z M1430.1,763.8c-1.2,1.1-2.4,2.1-3.5,3.2
	c-2.3,0.5-3.8,2.3-5.5,3.6c-69,52.5-137.9,105-206.8,157.5c-2.4,1.8-4.7,3.7-7.5,5.8c5.5,2.7,10.8,2.4,15.8,3.1
	c26.5,3.7,53,7.2,79.5,11c6.2,0.9,9.8-0.4,13.5-6c31.5-49,63.5-97.6,95.2-146.4c5.9-9,11.6-18.1,17.3-27.2c1.3-1.2,2.5-2.5,1.9-4.5
	l0.4-0.1C1430.3,763.8,1430.1,763.8,1430.1,763.8z M1241.1,396.3c0-0.2,0-0.5,0-0.7c-0.1-0.1-0.3-0.2-0.5-0.3
	c0.2,0.3,0.4,0.6,0.7,0.9c2.3,4.8,6.4,8.1,9.7,12.1c11.3,13.2,22.6,26.3,33.9,39.5c4.7,5.5,4.8,5.5,11.5,2.4
	c3.2-1.5,6.4-3.1,9.5-4.6c-0.4-2.2-2-3-3.3-3.9c-17.1-13-34.1-26.1-51.4-38.9C1248.1,400.3,1245.7,396.4,1241.1,396.3z
	 M1209.6,911.4c3.9,0.9,5.7-2.4,8.1-4.2c66.8-50.7,133.4-101.5,200.1-152.4c1.9-1.5,4.3-2.6,5.4-5c-1.8-0.8-3.2,0.3-4.7,0.8
	c-50.6,17.1-101.2,34.3-151.8,51.3c-3.8,1.3-5.9,3.4-7.6,6.8c-15.9,32.7-31.9,65.4-47.9,98.1c-0.7,1.5-1.8,2.8-1.4,4.6
	c-0.7,0-1,0.4-0.9,1c0,0.1,0.5,0.2,0.7,0.1C1210.3,912.2,1210.3,911.8,1209.6,911.4z M793.5,911.7c0.2,0.6,0.6,1.5,1.3,0.8
	c0.7-0.6,0-1.2-0.7-1.5c0.1-1.7-0.8-3.2-1.5-4.7c-15.9-32.5-31.8-64.9-47.6-97.4c-1.8-3.7-4.2-5.9-8.2-7.3
	c-50.2-16.9-100.2-33.9-150.4-50.9c-1.8-0.6-3.6-2.1-6.3-1c1.5,1.2,2.5,2.1,3.6,2.9c68.5,52.2,137,104.4,205.5,156.5
	C790.6,910.4,791.7,911.7,793.5,911.7z M1467.8,751.8c-1.3,4-2.2,6.5-2.9,9.1c-10.3,34.3-20.7,68.7-30.9,103.1c-1.5,5-4,8.8-8.1,12
	c-9.2,7.1-18.2,14.4-27.1,21.8c-37.6,31.2-77.3,59.9-111.4,95.2c-18.8,19.5-38.6,37.9-58,56.9c-2.5,2.5-4.9,4.7-4.5,9.1
	c2.6,28.3,4.9,56.7,7.2,85c2,23.7,3.7,47.3,6,71c0.6,6.6-1.6,10.7-6.9,14.5c-17,12.3-33.5,25.3-50.5,37.5c-5.2,3.8-7.2,7.8-7.2,14.3
	c0.3,50.5,0.2,101.1,0.1,151.6c0,9.3-0.6,10-9.7,12.5c-51.7,13.8-103.4,27.6-155,41.5c-4.7,1.3-9,1.3-13.7,0
	c-36.5-9.9-73-19.6-109.5-29.3c-15.5-4.1-30.9-8.2-46.3-12.4c-7.7-2.1-8.8-3.5-8.9-11.6c0-1.9,0-3.9,0-5.8
	c0-49.4-0.1-98.9,0.1-148.3c0-5.2-1.4-8.5-5.7-11.6c-17.9-13-35.4-26.5-53.1-39.6c-4.2-3.1-6.2-6.5-5.7-11.8
	c1.5-14.8,2.6-29.7,3.8-44.6c3-36.6,6-73.2,9.2-109.8c0.5-5.8-1.3-9.7-5.4-13.6c-16.4-15.6-32.3-31.7-48.7-47.4
	c-16.9-16.2-32.9-33.5-51.2-48.2c-31.7-25.4-63.1-51.1-94.8-76.4c-4.6-3.6-7.2-7.8-8.9-13.4c-9.7-33.1-19.7-66.1-29.7-99.1
	c-0.9-2.9-0.7-6.4-3.9-8.5c-104.5,191.6-82.1,467.9,122.7,644.9c200.9,173.5,498.2,170.7,695.5-6.6
	C1555.4,1213.2,1571.8,939.3,1467.8,751.8z M364.1,1036.6c-27.6,0-55.2,0-82.9,0c-11,0-9.6-0.8-9.3,9.9c0,1.1,0.1,2.2,0.2,3.3
	c3,40.8,8.6,81.3,18.5,121c41.6,167.7,130.6,304.8,267.2,410.5c111.3,86.1,237.7,135,377.7,148.4c41.3,4,82.7,4,124.1,0.8
	c49.1-3.8,97.4-12.3,144.8-25.9c232.7-66.6,419.3-246.3,494.7-476.4c19.8-60.4,31.5-122.3,35.2-185.8c0.3-5.6,0.3-5.7-5-5.9
	c-1.4-0.1-2.8,0-4.1,0c-55.2,0-110.5,0-165.7,0c-1.7,0-3.3,0.1-5,0c-3.4-0.2-4.8,1.3-5.1,4.8c-0.8,9.4-1.7,18.7-2.9,28
	c-8.2,66.8-28.4,129.8-60.2,189c-87.1,162.5-253.6,277.2-451.2,289c-48.7,2.9-97-0.8-144.9-10.8c-164-34.2-306.6-145.3-379.7-296.2
	c-29.9-61.8-48.1-126.8-53.5-195.3c-0.7-8.4-0.7-8.5-9.3-8.5C419.9,1036.6,392,1036.6,364.1,1036.6z M997.6,1806.3
	c32.1-0.8,59.1-1.8,86.1-4.5c48.7-4.8,96.6-14,143.6-27.7c219.7-64.1,402.4-219,501.8-425.2c34.8-72.1,58.1-147.8,70.3-226.9
	c4.1-26.2,6.5-52.6,8.1-79.1c0.4-6.2,0.3-6.4-6.3-6.4c-13.3-0.1-26.5-0.1-39.8,0c-6.4,0-6.5,0.1-7,7c-1.5,21.5-3.4,42.9-6.5,64.3
	c-11.8,80.7-35.8,157.5-72.6,230.3c-115.7,229.3-346.4,394.2-621.5,413.1c-43.3,3-86.6,1.9-129.9-2.6c-52.6-5.5-104.2-16-154.2-32.9
	c-178-59.8-315.8-170.3-413.2-330.7c-49.9-82.1-81.7-171-96.8-265.9c-4-25.1-6.8-50.3-8.2-75.7c-0.3-6.6-0.4-6.9-5.4-6.9
	c-14.4-0.1-28.7,0-43.1-0.1c-3.6,0-4.9,1.4-4.6,5c0.6,8,1,16,1.6,24c3.3,43.9,10.3,87.1,21.2,129.8c40,157.1,119.4,291,239.3,399.8
	C614.2,1734.4,795.7,1803.3,997.6,1806.3z M459.8,510.8c-3.7,2.1-5.4,4.7-7.4,7c-53,60.5-95.1,127.8-126.1,202.1
	c-26.1,62.5-42.9,127.5-50.9,194.7c-3.7,31.3-5.4,62.7-5,94.2c0.1,7.3,0.2,7.4,7.2,7.4c20.4,0,40.9,0,61.3,0c7,0,7.1-0.1,7.1-7.4
	c0.1-29.3,2.5-58.4,6.6-87.4c11.4-80.6,36.6-156.7,75.4-228.2c22.3-41.1,48.8-79.5,79.1-115.1c5.3-6.2,4.9-5.1,0.2-10.7
	c-7.2-8.7-14.5-17.4-21.8-26C477.1,531.2,468.5,521.1,459.8,510.8z M1735.3,980.2c-1.5-44.9-6-84.6-14-123.9
	c-21.9-107.7-65.7-205.6-131.4-293.7c-10.2-13.7-21-27-32.1-40c-2.2-2.5-3.8-3.6-6.4-0.4c-15.5,18.7-31.2,37.3-46.9,55.8
	c-1.9,2.3-2.5,4.1-0.2,6.4c1.1,1.2,2.1,2.6,3.2,3.8c42.9,52.5,77.3,110.2,102.8,173c23.5,57.8,38.8,117.8,45.7,179.9
	c2.5,23.1,4,46.2,4.3,69.4c0,4,0.9,5.9,5.5,5.9c21.5-0.2,43.1-0.2,64.6,0c4,0,5.3-1.4,5.2-5.3
	C1735.2,999.2,1735.3,987.3,1735.3,980.2z M525,588.4c-2.9,3.4-5.1,5.8-7.2,8.4c-43.4,52.2-77.9,109.7-103.5,172.6
	c-22.9,56.3-37.6,114.8-44.3,175.2c-2.4,22-3.9,44-3.9,66.1c0,3.5,0.4,5.6,4.8,5.6c26.5-0.2,53-0.1,79.5,0c4.1,0,5.3-1.6,5-5.5
	c-0.3-3.6-0.1-7.2-0.1-10.8c-0.4-43.9,5-87,15.3-129.6c13.4-55.1,35-106.8,64.6-155.2c19.4-31.7,41.8-61,67-88.3
	c1.7-1.8,4.6-3.2,4-6.7c-17.7-2.4-35.2-5-52.7-7.1c-5.9-0.7-10.4-2.6-14-7.4C535.3,600,530.4,594.8,525,588.4z M1399.7,622.4
	c2.8,3.1,4.4,5,6.1,6.8c29.4,31.8,54.6,66.5,75.7,104.3c34.3,61.4,56.1,127,65,196.8c3.4,26.3,4.8,52.8,4.5,79.3
	c-0.1,6.5,0,6.6,6.1,6.6c25.7,0.1,51.4,0.1,77,0c6,0,6-0.2,5.9-6.7c-0.7-46.2-5.7-92-16-137.1c-22.7-100-66.3-189.8-130.7-269.5
	c-1.5-1.8-2.5-4.3-5.7-4.8c-2.4,2.9-5.1,5.7-7.4,8.7c-2.6,3.6-6,5.4-10.4,6c-9.3,1.1-18.6,2.4-27.9,3.7
	C1428.4,618.4,1414.8,620.3,1399.7,622.4z M420.7,446c-2.8,0.7-3.8,2.5-5.1,3.8c-15.8,16.7-30.7,34-44.9,52.1
	C298.9,593,248.9,694.8,220.8,807.2c-11.3,45.1-18.3,90.9-21.5,137.2c-1.5,22-2.5,44.1-1.9,66.2c0.1,3.5,0.6,5.7,4.9,5.6
	c14.6-0.2,29.3-0.1,43.9,0c3.2,0,4.6-1.2,4.3-4.4c-0.1-1.6,0-3.3,0-5c-0.5-47.1,3.4-93.8,11.8-140.1
	c21.1-116,67.1-221.3,137.5-315.9c13.2-17.7,27.2-34.8,41.9-51.3c4.6-5.2,5.3-4.2,0-10.7c-3.2-3.8-6.1-8-9.7-11.3
	c-8.4-7.9-12.7-17.1-10.8-28.7C421.2,448.2,420.9,447.3,420.7,446z M1567.8,503.1c2.1,2.6,4,4.9,6,7.2c41.2,48,76,100.2,104,156.9
	c48.9,99,74.9,203.6,77.5,314c0.2,9.9,0.3,19.9,0.1,29.8c-0.1,4,1.3,5.3,5.2,5.2c11.6-0.2,23.2-0.1,34.8-0.1c3,0,6.1-0.1,9.1,0
	c2.8,0.1,4-1,4-3.9c-0.1-3.3,0.1-6.6,0.1-9.9c0.2-53.2-4.7-105.8-15.1-158c-28.4-142.3-91.1-267.7-186.6-376.8c-2-2.2-3.5-5-5.7-5.9
	C1591,476.5,1578.4,488.9,1567.8,503.1z M557.4,717.7c3.8,0,5.7,0,7.6,0c19.6-0.6,39.2-1.2,58.8-1.8c41.9-1.3,83.9-2.6,125.8-4
	c8.7-0.3,9.7,0.1,13.4,7.9c8.8,18.7,17.6,37.5,26.5,56.1c2.2,4.7,3.1,11,7.3,13.6c4.2,2.6,10.2,0.7,15.5,0.8
	c9.7,0.1,19.3-0.1,29,0.2c4.2,0.1,5.4-1.5,4.5-5.4c-0.5-2.4-0.5-4.9-0.8-7.4c-5.3-39.9-10.7-79.9-16-119.8c-1-7.4-1-7.3-8.3-8.3
	c-30.6-4.2-61.2-8.4-91.8-12.6c-29.2-4-58.5-7.9-87.7-12.1c-5.7-0.8-9.6,0.7-13.8,4.9c-21,21.3-39.5,44.6-57,68.8
	C566.1,704.3,562.3,710.3,557.4,717.7z M1010.8,908c-1.7,3-1.1,5.2-1.1,7.3c0,95.5,0,191,0,286.6c0,1.4,0.1,2.8,0,4.1
	c-0.2,3.2,1.3,4.4,4.4,4.4c15.7,0,31.5-0.1,47.2,0c3.9,0,4.7-1.8,4.2-5.1c-0.6-3.8-1-7.7-1.5-11.5c-4.1-34.2-8-68.5-12.6-102.7
	c-1.1-8,0.9-12.6,7.8-16.9c34.1-21,67.8-42.4,101.7-63.8c2.5-1.6,5.4-2.7,7.7-5.9C1115.9,972.4,1063.4,940.3,1010.8,908z
	 M993.5,907.9c-53.1,32.5-105.5,64.6-158.6,97.1c6.2,4,11.8,7.5,17.3,11c31,19.6,62,39.3,93.2,58.5c6.3,3.9,8.8,8.3,7.5,15.5
	c-1.2,6.5-1.7,13.1-2.5,19.7c-3.8,31.5-7.6,63-11.3,94.5c-0.7,5.9-0.5,6,5.4,6.1c13.5,0.1,27.1,0.1,40.6,0c10.5,0,9.3,0.7,9.3-9.3
	c0-94.7,0-189.4,0-284C994.4,914.4,994.9,911.7,993.5,907.9z M1174.5,790.4c9.3,0,17.3-0.4,25.2,0.1c6.1,0.5,9.3-1.6,11.8-7.3
	c9.6-21.4,20-42.4,29.7-63.7c2.7-6,6.4-7.9,12.8-7.7c61.8,2.1,123.5,4,185.3,5.9c2.6,0.1,5.3,0,7.9,0c-0.1-1.3-0.1-1.9-0.3-2.3
	c-1-1.7-2-3.3-3.1-4.9c-18.6-27.8-39.4-53.8-62.5-78.1c-5.1-5.3-9.9-6.5-16.7-5.5c-30.8,4.5-61.7,8.6-92.6,12.8
	c-24.9,3.4-49.7,6.8-74.6,10.1c-3.3,0.4-5,1.9-5.3,5.1c-0.1,1.6-0.5,3.3-0.7,4.9c-4.2,32-8.5,64-12.7,96
	C1177.4,767,1176,778.2,1174.5,790.4z M1175.2,991.7c2.3-2.7,1.7-5,1.8-7.1c1.7-27,3.7-53.9,9.1-80.5c6.2-30.5,11.2-61.3,16.6-92
	c1.3-7.1,1.1-7.3-6.4-7.3c-26.5,0.1-53,0.3-79.5,0.3c-4.4,0-7.8,1-11.1,4.1c-28.3,26.3-56.8,52.4-85.3,78.6c-1.8,1.6-4,2.9-4.9,6.2
	C1068.7,926.5,1122,959.1,1175.2,991.7z M988.9,893.8c-0.9-1.5-1.1-2.1-1.4-2.4c-30.2-27.9-60.5-55.7-90.7-83.6
	c-2.2-2.1-4.6-2.7-7.5-2.7c-27.9-0.1-55.7-0.2-83.6-0.3c-5.4,0-5.6,0.3-4.6,5.8c4.4,24.7,8.9,49.4,13.2,74.1
	c4.8,27.7,11.2,55.1,11.5,83.5c0.1,7.6,1,15.2,1.7,24.4C882,959.2,935.2,926.7,988.9,893.8z M844.1,1255.5c2.8,0.2,4.1-0.9,5.6-1.7
	c22.5-12.3,44.8-24.9,67.4-36.9c4.7-2.5,6.8-5.6,7.3-10.8c4.3-37.2,8.8-74.5,13.4-111.7c0.6-5-0.7-7.9-5.1-10.7
	c-32.1-19.9-64-40.2-96-60.2c-2-1.2-3.8-3.4-7.5-2.3C834.2,1099.1,839.1,1177.1,844.1,1255.5z M1160,1255.4
	c5-78.4,9.9-156.7,14.9-235.4c-1.4,0.3-2.3,0.3-2.9,0.7c-34.4,21.6-68.7,43.2-103.1,64.7c-2.9,1.8-3.3,3.9-2.9,6.9
	c4.7,38.1,9.5,76.1,13.9,114.2c0.6,4.9,2.4,7.8,6.8,10.1c22.1,11.9,44,24.1,66,36.2C1154.8,1253.9,1156.7,1255.7,1160,1255.4z
	 M575,764.3c-0.4,0.3-0.7,0.6-1.1,0.9c0.5,0.9,0.9,1.9,1.5,2.7c38.1,58.5,76.3,116.9,114.3,175.4c2.6,4,5.2,5.5,10.1,4.8
	c30.8-4.4,61.7-8.4,92.6-12.6c1.4-0.2,3.3,0,4.3-2.4C722.8,876.9,648.9,820.6,575,764.3z M1158.2,1415.2c1.7-1.6,1.1-3.6,1.1-5.4
	c0-43.6-0.1-87.2,0.2-130.8c0-5.1-2.1-7.3-6.1-9.4c-21.1-11.4-42.1-23.1-63.1-34.6c-1.9-1-3.6-2.6-6.1-2.4c-1.1,2.4-0.2,4.9,0.1,7.3
	c4.8,34.4,9.7,68.8,14.4,103.3c0.6,4.1,2.2,7.2,4.8,10.2c16.3,18.8,32.4,37.6,48.7,56.4C1154,1411.7,1155.3,1414.3,1158.2,1415.2z
	 M919.5,1233c-2.8-0.5-4.7,1.4-6.8,2.6c-20.6,11.2-41,22.7-61.7,33.8c-4.5,2.4-6.1,5.2-6.1,10.3c0.2,43.4,0.1,86.7,0.2,130.1
	c0,1.7-0.9,3.9,1,5.1c1.5,0.1,2.1-0.9,2.8-1.7c17.7-20.5,35.3-41,53-61.5c1.9-2.2,2.9-4.5,3.3-7.3c4.8-34.4,9.7-68.9,14.5-103.3
	C919.9,1238.5,921,1235.7,919.5,1233z M1153.4,1433.2c-6.7-7.8-12.8-14.9-18.9-22c-12.8-14.8-25.5-29.7-38.4-44.5
	c-3.8-4.4-4-4.4-8.3-0.4c-4.3,3.9-8.4,8-12.6,11.9c-20.2,19.1-40.5,38.3-60.7,57.4c-2.1,2-5,3.6-4.9,7.2c0.2,9.3-0.5,18.6,0.5,28.6
	C1057.9,1458.8,1105.1,1446.1,1153.4,1433.2z M850.7,1433.2c48.5,13,95.7,25.6,143.7,38.5c0-8.8-0.3-16.8,0.1-24.7
	c0.2-4.9-1.6-8.1-5-11.4c-24.5-23-48.9-46.2-73.3-69.3c-1.3-1.2-2.3-3.1-5.4-2.8C891.3,1386.1,871.4,1409.2,850.7,1433.2z
	 M560.8,599.5c29.8,4.1,58.5,8,87.2,12c30.6,4.2,61.2,8.4,91.8,12.6c28.7,3.9,57.4,7.9,86.1,11.9c2.8,0.4,4.7,0.1,6-2.8
	c2.8-6,6-11.8,8.8-17.8c2-4.2,1.7-4.6-2.8-5.3c-32.2-4.5-64.5-8.9-96.7-13.4c-29.8-4.1-59.6-8.3-89.3-12.4
	c-24.3-3.4-48.6-6.9-72.9-10.3c-2-0.3-3.9-0.6-5.1,1.5C569.6,583.1,564.7,590.4,560.8,599.5z M1460.5,599.3
	c-4.3-7.6-8.3-14.5-12-21.5c-1.8-3.5-3.9-4.4-7.9-3.8c-36.8,5.4-73.7,10.5-110.5,15.7c-45.6,6.3-91.2,12.5-136.8,19
	c-4.8,0.7-9.9,0.3-14.7,2.9c2.9,8.1,7.2,15.1,10.8,22.5c1.3,2.7,3.6,2.1,5.7,1.8c6.3-0.9,12.5-1.9,18.8-2.7
	c34.1-4.6,68.3-9.2,102.4-13.9c35.2-4.8,70.4-9.6,105.7-14.5C1434.5,603,1447,601.3,1460.5,599.3z M875.1,581.9
	c-3.7,6.7-6.1,11.7-9.1,16.2c-3.5,5.2-3.8,10.2-2,16.2c9.5,32,18.6,64.1,27.9,96.2c7,24.4,14.1,48.8,21.2,73.1
	c1.9,6.6,1.9,6.6,8.9,6.6c11.9,0,23.8,0,35.6,0c2.9,0,5.8-0.2,10-0.4C936.7,720.5,906.3,652,875.1,581.9z M1145.7,581.9
	c-31.2,70.2-61.7,138.8-92.7,208.4c16.1,0,30.7,0,45.3,0c8.9,0,7.5,0,9.5-7c6.7-23,13.3-46.1,20-69.1c9.8-33.9,19.5-67.8,29.3-101.7
	c0.9-3.2,2.3-6.1,0.3-9.5C1153.7,596.6,1150.2,590.1,1145.7,581.9z M1083,1341.7c1.3-3,0.4-5.5,0-7.9c-1.9-13.9-3.9-27.9-5.8-41.8
	c-2.8-20.5-5.8-41-8.4-61.5c-0.6-4.6-2.5-5.9-6.9-5.8c-15.5,0.2-30.9,0.2-46.4,0c-4,0-5.9,0.9-5.9,5.5c0.2,29.3,0.2,58.5,0,87.8
	c0,4.3,1.8,5.5,5.6,6.5c15.3,3.7,30.5,7.7,45.7,11.6C1068.2,1337.9,1075.6,1339.8,1083,1341.7z M994.4,1274.6
	c0-14.6-0.1-29.2,0-43.9c0-3.8-0.4-6.1-5.3-6c-16,0.3-32,0.2-48,0.1c-3.3,0-5.1,0.9-5.4,4.4c-0.4,4.7-1.3,9.3-2,13.9
	c-4.3,30.6-8.5,61.2-12.7,91.8c-0.9,6.5-0.3,7,5.7,5.4c20.8-5.3,41.6-10.8,62.5-15.9c4.1-1,5.3-2.8,5.2-6.8
	C994.3,1303.3,994.4,1289,994.4,1274.6z M1157.1,572.3c3.5,6.5,6.9,12.8,10.4,19c3.3,5.9,3.4,6,10.4,5.1c12.3-1.6,24.6-3.4,36.9-5.1
	c63.3-8.8,126.6-17.6,189.9-26.5c8.9-1.2,17.7-2.6,28.2-4.2c-6-5.2-10.9-9.1-15.4-13.4c-3.4-3.3-7-4.5-11.9-3.9
	c-31.5,3.7-63,7.1-94.5,10.6c-43.5,4.9-87.1,9.8-130.6,15C1172.9,569.8,1165.1,569.7,1157.1,572.3z M589,559.7
	c1.8,1.1,2.2,1.5,2.7,1.6c36.3,5.1,72.6,10.1,108.9,15.2c38.8,5.4,77.5,10.8,116.3,16.2c9.3,1.3,18.6,2.6,27.9,3.8
	c2.7,0.4,5.4,0.8,7.1-2.5c3.6-7.3,8.3-14.1,11.7-22.5c-11.6-1.3-22.5-2.5-33.4-3.8c-27.4-3.1-54.8-6.2-82.2-9.4
	c-26.6-3.1-53.1-6.2-79.7-9.2c-18.1-2.1-36.2-4-54.3-6c-2.4-0.3-4.9-0.9-7.1,1C601.2,549.3,595.4,554.3,589,559.7z M1424.7,733.2
	c-4.9-2.2-8.3-1.8-11.5-1.9c-14.9-0.5-29.8-0.9-44.7-1.4c-35.3-1.1-70.6-2.3-105.9-3.5c-3.6-0.1-5.1,0.8-4.7,4.6
	c0.7,6.9,1.2,13.7,1.8,20.6c1.1,11.8,2.2,23.6,3.4,36.4C1316.9,769.7,1370,751.7,1424.7,733.2z M740.4,787.7c0.6-1.9,1-2.6,1.1-3.4
	c1.6-17.6,3.1-35.2,4.5-52.8c0.4-5.2,0.1-5.3-5.7-5.1c-32.8,1-65.7,2.1-98.5,3.1c-17.9,0.6-35.9,1.1-53.8,1.8
	c-2.4,0.1-5.1-0.4-7.9,2.1C633.9,751.7,686.9,769.6,740.4,787.7z M1538,443.1c-9.2-3.7-18.1-7.3-27.1-10.8c-7.2-2.8-7.2-2.8-12,3.4
	c-23.4,30.7-46.8,61.5-70.2,92.3c-0.8,1.1-1.6,2.3-2.5,3.3c-1.6,1.9-1.2,3.4,0.6,4.9c6.5,5.6,13,11.2,19.4,16.8
	c1.8,1.6,3.4,1.5,4.9-0.5c0.8-1.1,1.7-2.2,2.6-3.2c26.9-33.3,53.9-66.5,80.8-99.8C1535.8,447.9,1537.7,446.5,1538,443.1z M572,555.3
	c7.1-6.1,13.2-11.4,19.2-16.6c5.3-4.5,6.1-3.9,1.2-10.3c-15.4-20.2-30.7-40.4-46.1-60.6c-8.7-11.4-17.3-22.9-26.1-34.2
	c-1.4-1.8-2.4-4.5-5.8-3.1c-10.6,4.3-21.3,8.5-32.9,13.2C512,481.2,541.8,518,572,555.3z M439.8,464.4
	c36.1,43,71.5,85.3,107.7,128.1c4.2-7.4,7.8-13.6,11.3-19.9c4.2-7.3,4-5.6-1.2-12c-26.7-33-53.4-66-80.2-99c-2.4-3-4.9-6-7.3-9
	c-1.3-1.7-2.9-2.6-5-1.5C456.9,455.4,448.7,459.7,439.8,464.4z M1580.6,464.2c-7.4-3.9-14.2-7.5-21-11c-6.6-3.4-6.7-3.4-11.3,2.3
	c-27.6,34.1-55.2,68.1-82.8,102.2c-7.1,8.7-7.2,8.8-1.2,18.9c3,5,4.9,10.8,9.5,14.9C1480.4,584.6,1575.8,470.8,1580.6,464.2z
	 M783.1,1037.7c8.2-30.7,16-59.7,24-89.6c-34.3,4.7-67.1,9.1-101.5,13.8C731.8,987.6,756.8,1012,783.1,1037.7z M1220.8,1036.8
	c13.1-10.1,73.2-69.9,75.7-75.2c-32.7-4.4-65.4-8.9-99.5-13.5C1205.1,978.2,1212.8,1007,1220.8,1036.8z M852.2,625
	c-3,5.8-4.8,10-7.2,13.9c-2.7,4.5-3,9-2.3,14.2c4.4,31.4,8.4,62.8,12.5,94.2c1.7,12.8,3.4,25.7,5,38.5c0.4,2.8,1.1,4.7,4.4,4.6
	c11.5-0.1,22.9,0,35.2,0C884.1,735.3,868.5,681.2,852.2,625z M1120.9,790.3c12.8,0,24.3,0,35.8,0c3.8,0,3.4-2.9,3.7-5.2
	c2.4-17.8,4.8-35.5,7.2-53.3c3.5-26.5,7-53,10.5-79.6c0.4-3,1.3-6-0.2-9c-2.8-5.5-5.6-11.1-9.3-18.4
	C1152.4,681.1,1136.8,735.2,1120.9,790.3z M448.9,272.2c-0.4,0.1-0.8,0.1-1.2,0.2c0.1,1.1,0.1,2.2,0.3,3.3
	c6.5,37.2,13.1,74.3,19.6,111.5c2.2,12.5,4.3,25,6.6,37.4c0.5,2.5,0.4,6.2,4.8,4.5c9.2-3.6,18.4-7.4,27.6-11c2.2-0.9,3-2.2,2.1-4.4
	c-0.6-1.5-1.2-3.1-1.9-4.6c-11.9-28.1-23.9-56.3-35.8-84.4C463.7,307.2,456.3,289.7,448.9,272.2z M1573,273.6c-0.5,0-1,0-1.6-0.1
	c-8.4,19.8-16.8,39.5-25.1,59.3c-11.1,26.1-22.1,52.3-33.2,78.4c-2.3,5.4-2.2,5.5,3.1,7.7c6.1,2.5,12.3,4.8,18.4,7.3
	c13.4,5.5,10.7,4.8,12.8-7c6.8-37.1,13.2-74.3,19.7-111.5C1569.2,296.3,1571,284.9,1573,273.6z M1009.6,876.5
	c8.2-5,73.5-65.5,76.8-71.1c-24.4,0-48.6,0-72.9,0c-4.3,0-4,2.7-4,5.6C1009.6,832.4,1009.6,854,1009.6,876.5z M1009.6,1419
	c8.8-5.8,63.8-58.5,66.9-63.8c-4.6-1.2-9.1-2.4-13.6-3.6c-15.7-4.1-31.4-8.2-47.2-12.1c-5.6-1.4-6.1-1-6.2,4.9
	c-0.1,6.6,0,13.2,0,19.8C1009.6,1382,1009.6,1399.9,1009.6,1419z M993.3,876.9c0.7-1.6,1.1-2.1,1.1-2.5c0-21.3-0.1-42.5,0.2-63.8
	c0.1-4.9-2.3-5.2-6-5.2c-22.4,0-44.7-0.1-67.1-0.1c-1.4,0-3.4-0.9-4.1,1.8C942.4,830.1,967.5,853.2,993.3,876.9z M1347.9,918.2
	c0.3,0.3,0.6,0.6,0.9,1c1.1-0.8,2.2-1.5,3.3-2.4c20.8-16.8,41.6-33.7,62.5-50.4c3.4-2.7,5.3-5.9,6.6-10.1c7.9-27,16-53.9,24.1-80.8
	c0.6-2,2.1-3.9,0.4-7.1C1412.9,818.6,1380.4,868.4,1347.9,918.2z M926.6,1355.3c11.3,13.2,62.6,60.6,67.2,62.4c0-26.2,0-52.5,0-79.6
	C971.1,1343.9,949.1,1349.6,926.6,1355.3z M653.5,918c0.5-0.5,1.1-1,1.6-1.4c-32.3-49.5-64.6-99-96.9-148.6
	c-0.7,3.1-0.1,5.5,0.6,7.8c6.3,21.1,12.7,42.2,19.1,63.3c2.3,7.6,3.4,16.1,7.4,22.7c4.2,6.9,12.2,10.9,18.6,16.1
	C620.4,891.4,637,904.7,653.5,918z M1174.6,1253.4c15.4-11.5,29-21.7,42.6-31.9c4.8-3.6,4.8-3.7,2.2-9.3
	c-11.2-23.3-22.5-46.6-33.8-69.8c-0.8-1.5-0.8-4-3.6-3.9C1179.5,1176.2,1177.1,1213.8,1174.6,1253.4z M822.2,1136.9
	c-1.6,2.1-2.2,2.7-2.5,3.4c-11.8,24.3-23.4,48.6-35.4,72.9c-1.9,3.9-0.9,5.8,2.3,8.1c12.7,9.3,25.2,18.8,37.8,28.2
	c1.2,0.9,2.4,2.5,5,1C827,1213.4,824.6,1176.1,822.2,1136.9z M1472.6,446.4c6.4-8.4,12.4-16.3,18.3-24.1c1.4-1.9,0.6-3.5-0.5-5.3
	c-12.6-19.4-25.2-38.8-37.6-58.3c-2-3.1-3.7-3.4-6.5-1c-5.6,4.8-11.5,9.4-17.3,14.1c-4.9,4-4.9,4.1-1.5,9.1
	c7.8,11.4,15.6,22.7,23.4,34C1458,425.3,1465,435.4,1472.6,446.4z M570.8,354.9c-7,10.8-13.2,20.5-19.5,30.1
	c-6.7,10.4-13.5,20.8-20.2,31.2c-1.3,2-3,3.8-0.9,6.6c5.9,7.5,11.6,15.1,17.8,23.2c1.6-1.8,2.8-3,3.7-4.3
	c14.1-20.4,28.1-40.8,42.2-61.2c0.5-0.7,0.9-1.4,1.4-2c1.3-1.6,1-2.9-0.6-4.2C586.9,368,579.2,361.8,570.8,354.9z M1584.9,449.5
	c0-52.2,0-103.5,0-154.4c-1.7,1.8-1.8,4.8-2.3,7.7c-5.3,30.4-10.7,60.7-16.1,91.1c-2.2,12.2-4.3,24.4-6.4,36.6
	c-0.4,2.5-2.1,5.5,1.4,7.3C1569,441.7,1576.2,446.1,1584.9,449.5z M799,883.6c-0.2-2.9-0.2-4.8-0.5-6.7c-4.4-24.7-8.7-49.3-13.3-74
	c-0.5-2.7-1.6-5.3-2.8-7.7c-6.4-13.7-12.8-27.4-19.3-41.1c-0.9-1.8-1-4.4-4-5.1c-1.2,13.9-2.3,27.6-3.6,41.3
	c-0.5,4.6,0.6,8.6,2.6,12.7c12.1,24.4,24,49,36,73.4C795.1,878.6,795.7,881,799,883.6z M436,449.9c8.3-4.3,15.3-8,22.4-11.5
	c2.3-1.2,3.2-2.8,2.6-5.3c-0.4-1.9-0.5-3.8-0.8-5.7c-6.5-37.2-13-74.4-19.7-111.5c-1-5.5-1.1-11.3-4.5-16.4
	C436,349.1,436,398.8,436,449.9z M1205.1,882.6c2.6-0.4,3.1-2.4,3.9-4.1c12.9-26.2,25.7-52.4,38.5-78.6c1.3-2.6,1.6-5.1,1.3-8
	c-1.1-11.2-2-22.5-3-33.8c-0.3-2.9-0.1-5.9-1.7-8.6c-1.9,1-2.3,2.7-3,4.1c-6.6,13.9-13.1,27.9-19.8,41.8c-1.6,3.3-2.4,6.7-3.1,10.2
	c-3.4,18.7-7,37.4-9.9,56.1C1207.4,868.7,1204.2,875.3,1205.1,882.6z M1348.5,435.1c-5.5,4.1-9.5,7.5-13.9,10.2
	c-4.7,2.9-6.4,6.5-6.3,12.2c0.4,22.3,0.1,44.6,0.1,66.9c0,13.8,0,13.8,13.9,11.5c6.4-1,6.4-1,6.4-7.6c0-29.2,0-58.3,0-87.5
	C1348.7,439.5,1348.6,438.2,1348.5,435.1z M672.4,435.3c0,4.7,0,7.5,0,10.2c0,25.4,0,50.7,0,76.1c0,15.1,0,15,15.3,15.5
	c3.4,0.1,5-0.6,5-4.4c-0.1-26.2-0.1-52.4,0-78.5c0-2.3-0.3-4.2-2.4-5.7C684.7,444.5,679.3,440.4,672.4,435.3z M1218.6,1177.2
	c-1-34.8-3.8-69.1-7.7-103.6c-7.8,9.4-14.5,19.1-21.8,28.4c-3.3,4.2-3.7,7.5-1.2,12.5c9.4,18.7,18.3,37.6,27.4,56.4
	C1216.4,1173.1,1217.5,1175.1,1218.6,1177.2z M793.1,1073.4c-3.4,16.9-9.5,98.6-7.8,104.8c10.6-22,21.1-43.9,31.8-65.6
	c1.8-3.6,1.1-6-1.1-8.9c-6-7.9-11.7-16-17.6-24C796.8,1077.5,795.7,1074.9,793.1,1073.4z M1462.4,347.3c12.3,19,24.5,37.8,37.5,57.9
	c2.6-5.9,4-10.6,6.5-14.7c6.2-10.2,5.2-18.9-2.4-28.2c-6.1-7.4-10.6-16-15.9-24.1c-1.2-1.8-2.1-4.2-5-2.5
	C1476.3,339.5,1469.2,342.5,1462.4,347.3z M558.7,346.9c-7.2-3.8-13.8-7.2-20.3-10.9c-2.1-1.2-3.5-1-4.8,1
	c-7.9,12.3-15.9,24.5-23.9,36.8c-0.8,1.2-1,2.5-0.5,3.9c3.7,8.8,7.4,17.6,11.7,27.5C533.8,385.3,546,366.6,558.7,346.9z
	 M1313.9,458.7c-5.3,1.1-8.7,3.7-12.5,4.9c-5.3,1.7-7,4.8-6.9,10.4c0.4,17.9,0.1,35.9,0.1,53.8c0,15.2,0,15.2,15.1,12.1
	c2.9-0.6,4.2-1.8,4.2-4.9C1313.9,509.8,1313.9,484.8,1313.9,458.7z M708.2,459c-1.9,2.9-1.1,5.7-1.1,8.4c-0.1,19.6-0.2,39.2,0,58.7
	c0.1,15.1-2.7,12.9,13.5,14.6c3.9,0.4,5.4-0.5,5.4-4.6c-0.1-21.8-0.1-43.6-0.1-65.4c0-1.9,0.2-4-2.1-4.9
	C718.6,463.5,713.8,460.3,708.2,459z M567,221.6c-0.5-0.1-0.9-0.3-1.4-0.4c-3.5,14.4-7,28.8-10.5,43.2c-4.2,17.1-8.3,34.3-12.7,51.4
	c-0.9,3.7-0.5,6.2,3.4,7.9c5.2,2.4,10.2,5.3,16.6,8.7C563.9,294.7,565.5,258.1,567,221.6z M1458.5,332.4c6.5-3.4,11.4-6.3,16.6-8.7
	c3.7-1.7,4.4-3.7,3.4-7.7c-7.2-28.5-14-57.1-21.1-85.7c-0.4-1.5,0.2-4-3.3-4.2C1455.5,261.1,1457,295.9,1458.5,332.4z M1439.9,234.9
	c-0.3,0-0.6,0-1,0c-5,40.3-10,80.5-15.3,122.7c7.3-5.9,13-10.5,18.8-15.1c2-1.6,2-3.7,1.9-6c-0.3-6.1-0.6-12.1-0.9-18.2
	C1442.3,290.5,1441.1,262.7,1439.9,234.9z M1245.6,378.9c-0.1,0.3-0.3,0.6-0.4,0.9c15.7,11.9,31.3,23.9,47,35.8
	c8.3,6.4,16.7,12.7,25.1,19c1.7,1.3,3.4,3.2,5.8,1.3c5.8-4.5,12.3-8.1,17.7-14C1308.7,407.3,1277.2,393.1,1245.6,378.9z M595.2,356
	c0.6-0.2,1.1-0.5,1.7-0.7c-5.2-40-9.6-80.1-15.7-120c-1,13.2-1.6,26.4-2.1,39.5c-0.8,20.1-1.6,40.2-2.4,60.2c-0.1,3-0.5,5.9,2.6,8.1
	C584.7,347.3,589.9,351.7,595.2,356z M679.2,422.2c5.7,4.3,10.5,7.9,15.3,11.4c5.2,3.8,5.2,3.8,10.4-0.1
	c21.3-16.2,42.7-32.4,63.9-48.6c1.1-0.8,3.1-1.2,2.6-4.3C740.9,394.3,710.7,408,679.2,422.2z M818.1,1082.1
	c0.5-18.7-4.7-88.9-6.9-93.3c-5.2,19.2-10.2,38-15.4,56.9c-0.8,2.8-0.6,5.2,1.3,7.7C803.9,1062.3,810.4,1071.5,818.1,1082.1z
	 M1185.5,1080.4c0.5,0.1,1,0.2,1.5,0.4c6.8-9.3,13.5-18.7,20.4-27.9c2-2.7,1.4-5.1,0.6-7.8c-2.6-9.6-5.2-19.2-7.8-28.7
	c-2.6-9.5-5.1-19-7.6-28.5c-0.4,0-0.8,0.1-1.3,0.1C1189.4,1018.8,1187.5,1049.6,1185.5,1080.4z M778.3,395.9
	c-21.5,16.4-42.6,32.4-64,48.7c3.6,2.9,7.2,4.1,10.6,5.7c6.3,3,6.4,3,10.9-2.2c13.5-15.7,26.9-31.4,40.3-47.1
	C777.1,399.8,778.7,398.9,778.3,395.9z"/>
<path class="st1" d="M1426.5,766.9c1.2-1.1,2.4-2.1,3.5-3.2l-0.2,0.1c0.6,2-0.7,3.2-1.9,4.5C1427.5,767.9,1427,767.4,1426.5,766.9z"
	/>
<polygon class="st1" points="1430.1,763.8 1430.3,763.8 1429.9,763.8 "/>
<path class="st1" d="M1241.2,396.1c-0.2-0.3-0.4-0.6-0.7-0.9c0.2,0.1,0.4,0.2,0.5,0.3c0.1,0.2,0,0.5,0,0.7
	C1241.1,396.3,1241.2,396.1,1241.2,396.1z"/>
<path class="st1" d="M794.2,911.1c0.7,0.3,1.3,0.9,0.7,1.5c-0.7,0.6-1.1-0.2-1.3-0.8C793.8,911.5,794,911.3,794.2,911.1z"/>
<path class="st1" d="M1209.6,911.4c0.7,0.4,0.7,0.8,0.1,1.2c-0.2,0.1-0.7,0-0.7-0.1c-0.1-0.6,0.2-1,0.9-1
	C1209.8,911.5,1209.6,911.4,1209.6,911.4z"/>
<path class="st0" d="M1528.2,1251.4c3.5-3.9,9.8-3.1,10.3-7.6c0.4-3.5-2.1-7.3-3-11c-0.8-3.2-2.6-6.1-2.4-9.9
	c3.7-0.8,6.9,0.8,10.3,1.6c3.2,0.7,6.4,1.3,9.5,1.9c2.4-3.7,0.7-7.8,2.5-11.9c6,2.9,9.4,8.6,15.6,12.2c0.4-10.1-3.2-18.9-3.2-28.7
	c3.9,1.3,7.1,2.2,10.1,3.4c3.1,1.2,5.1,0.5,6.9-2.4c3-4.9,6.3-9.6,10.1-15.2c3.5,5.4,6.7,9.8,9.4,14.5c2,3.5,4.3,4.6,8.1,2.9
	c2.7-1.2,5.7-1.9,9.3-3.2c0,9.8-2.9,18.7-3.5,28.4c6.5-2.6,9.5-9.2,15.7-11.8c2.2,3.6,0.9,7.8,2.6,11.9c6.5-1.4,13.1-2.8,20.8-4.4
	c-1.9,6.2-3.5,11.6-5.1,17c-1.8,6-1.8,6,4,9c1.5,0.8,2.9,1.6,4.2,2.3c0.1,3-2.3,3.8-3.9,5.1c-7.8,6.2-15.5,12.4-23.6,18.2
	c-3.4,2.5-4.6,5.1-3.2,9.1c0.9,2.8,1.3,5.7,2.2,9.4c-11.2-1.7-21.4-3.2-32.6-4.9c0,9.2-0.1,17.7,0.1,26.2c0.1,3.5-1.6,4.1-4.5,4.1
	c-2.8,0-4-1-4-3.8c0.1-5.5,0-11,0-16.6c0-3,0-6,0-9.4c-11.4-0.3-21.6,4-32.4,3.9c-0.1-1.1-0.4-2-0.1-2.6c4.3-8.8,1.2-14.5-6.8-19.5
	C1543.5,1264.2,1536.3,1257.7,1528.2,1251.4z"/>
<path class="st0" d="M342.3,1251.6c0.8-1.2,0.9-1.4,1.1-1.6c2.7-2.3,7.8-2.3,8.8-5.5c1.1-3.5-1.6-7.3-2.7-11
	c-1-3.4-2.2-6.8-3.4-10.6c4-1,7.3,0.5,10.6,1.3c3.2,0.8,6.4,1.4,9.8,2.1c2.5-3.5,0.8-7.6,2.4-11.6c6.6,1.7,9.4,8.7,15.8,11.4
	c0.3-9.5-3-18.2-3.4-27.7c4,0,7.2,1.6,10.4,2.8c3.2,1.2,5.1,0.4,6.9-2.5c3-4.9,6.2-9.6,9.6-14.8c4.4,4.5,7,9.4,9.8,14
	c2.1,3.5,4.4,4.5,8.1,3c2.8-1.2,5.7-1.9,9.2-3.1c0.5,9.7-3.4,18.5-2.9,28.4c6-3.3,9.4-9,15.3-12c2.2,3.8,0.4,7.9,2.6,12
	c6.3-1.3,12.8-2.7,20-4.1c-0.3,6.6-3,12.1-4.9,17.6c-1.3,3.8-1.5,6.2,3,7.5c2.1,0.6,3.9,2,5.7,2.9c0.1,3-2.4,3.8-4,5.1
	c-7.8,6.2-15.6,12.3-23.6,18.2c-3.3,2.5-4.6,5-3.2,9.1c1,2.7,1.3,5.7,2,8.9c-11.1-0.3-21.2-3.6-31.9-4.2c-1.6,6.7-0.5,13.2-0.8,19.7
	c-0.1,2.2-0.1,4.4,0,6.6c0.1,2.9-1.4,3.8-4,3.8c-2.7,0-4.1-0.8-4.1-3.8c0.1-6.9,0-13.8,0-20.7c0-1.6,0.3-3.3-0.9-5.4
	c-10.4-0.2-20.5,3.8-31.1,3.9c-1.5-2-0.4-4,0.3-5.5c3-6.8,0.5-10.9-5.4-14.9C358.8,1265.2,350.9,1258.3,342.3,1251.6z"/>
<path class="st0" d="M732.8,1592c3.4-2,3.7-4.6,4.7-6.7c6.1-13,12.3-25.9,18.1-39c1.8-4,3.7-4.4,7.5-2.6c11,5.1,11.1,4.9,6,15.5
	c-12.8,26.6-25.5,53.2-38.3,79.7c-1.1,2.3-1,6.6-5.6,5.5c-6.5-1.6-10.6-5.1-10.6-9.5c0.1-14.9,0.3-29.8,0.4-44.7
	c0-2.4,0.8-4.9-0.7-7.1c-2.6,0.1-2.7,2.4-3.4,4c-5.6,12-11.1,24-16.5,36.1c-1.6,3.7-3.1,5-7.4,3c-11.6-5.4-11.8-5.2-6.2-16.7
	c12.6-26.3,25.3-52.7,37.9-79c3.2-6.6,3.3-6.7,9.5-3.6c8.7,4.4,7.5,2,7.1,12.4C734.5,1556.6,733.7,1573.9,732.8,1592z"/>
<path class="st0" d="M1548.1,1431.8c-8.5,11.5-8.5,11.5-21.2,8.2c-14.4-3.8-28.8-7.5-43.2-11.3c-0.2-0.1-0.5,0.1-1.2,0.2
	c0.5,2.3,2.5,3.2,4,4.4c10.5,8.5,21.1,16.9,31.6,25.4c4.6,3.7,4.5,3.8,0.9,8.4c-7.5,9.6-7.6,9.7-17.2,1.6
	c-22.7-18.9-45.4-37.8-68-56.7c-4.9-4.1-4.8-4.1-1-9c5.4-6.9,5.4-6.9,13.6-4.5c16.9,5,33.7,10,51.2,15.3c-0.7-3-2.7-3.9-4.2-5.1
	c-11.5-9.4-23-19-34.7-28.2c-3.5-2.7-3.7-4.8-0.7-7.8c2.7-2.7,4.6-6.2,8.3-8.9C1493.5,1386.2,1520.5,1408.8,1548.1,1431.8z"/>
<path class="st0" d="M942.1,1698.6c-7.7-0.6-15.4-1.2-23.1-2c-5.8-0.6-6-0.9-5.5-6.6c2.2-22.8,4.5-45.6,6.8-68.3
	c0.9-8.8,1.8-17.6,2.7-26.3c0.6-6.1,0.6-6.2,6.3-5.6c8.5,0.8,17,1.5,25.5,2.6c14.9,2,26.5,14.6,25.8,29.6c-0.8,17.3-2.4,34.7-5,51.8
	C973.4,1689,958.7,1699.1,942.1,1698.6z M934.5,1671.6c0.2,2.2-1.6,5.1,0.8,6.8c7.3,5.3,21-0.7,22.2-10c1.9-15,3.2-30.1,4.4-45.2
	c0.5-6.7-3.9-11.5-10.6-12.5c-1.9-0.3-3.9-0.2-5.7-0.6c-4.1-1-5.4,0.8-5.7,4.6C938.2,1633.7,936.4,1652.6,934.5,1671.6z"/>
<path class="st0" d="M1329.8,1496.2c10.9,0.5,19.4,4.5,25.2,13.1c9.5,14.2,18.9,28.5,27.8,43c8.8,14.4,4.4,32.7-9.3,41.5
	c-13.6,8.7-32.2,4.9-41.6-9c-9.5-14.2-18.7-28.6-27.5-43.2c-6.2-10.3-5.7-21.2,0.5-31.4C1310.5,1500.8,1319.3,1496.3,1329.8,1496.2z
	 M1368.4,1568.2c-0.1-2.8-1.3-5.5-3-8.1c-8.2-12.7-16.4-25.4-24.7-38.1c-1-1.6-2.2-3.2-3.7-4.4c-3.7-3.2-8.2-3.6-12.3-1.3
	c-4.3,2.4-6.1,6.1-5.8,11c0.1,2.6,1.3,4.7,2.7,6.8c8.2,12.7,16.3,25.5,24.6,38.2c1,1.6,2.2,3.2,3.6,4.4c3.6,3.2,7.9,3.8,12.3,1.9
	C1366.4,1576.6,1367.9,1572.8,1368.4,1568.2z"/>
<path class="st0" d="M619,1585.9c-3.2-0.9-5.4-3.2-7.8-4.9c-6.6-4.7-6.7-4.8-3.4-12.1c1.2-2.6,1.5-4.6-1.3-6.3
	c-1.6-1-3.1-2.3-4.7-3.4c-2.8-1.8-4.9-4.9-8.2-5.2c-3.3-0.3-4.7,3.3-6.9,5.3c-1.9,1.6-3.4,1.3-5.1,0c-3.7-2.8-7.5-5.5-11-8.1
	c-0.1-2.5,1.6-3.3,2.7-4.4c23.1-22.1,46.2-44.2,69.3-66.2c6.2-5.9,5.2-5.9,12.1-0.6c4.1,3.1,10.6,4.8,11.4,9.9
	c0.8,4.5-3.5,9-5.6,13.4c-12.4,25.2-24.8,50.4-37.3,75.5C621.9,1581.3,621,1584,619,1585.9z M634.7,1513c-7.9,5.6-14,13.1-20.8,19.7
	c-9,8.7-8.9,8.8,1.7,15.7c0.4,0.2,1,0.1,2,0.2c5.7-10.8,11.4-21.7,17.1-32.7c0.5-1,0.8-2-0.1-3c0.5,0.5,1,0.6,1.2,0
	c0.1-0.3-0.2-0.7-0.3-1.1C635.3,1512.3,635,1512.7,634.7,1513z"/>
<path class="st0" d="M788.8,1667.7c7-14.7,14-29.4,21-44.1c7.5-15.7,14.9-31.4,22.3-47.1c3-6.2,3-6.2,9.9-4.4
	c3.2,0.8,6.4,1.6,9.6,2.5c6.5,1.8,6.4,1.8,5.8,8.3c-3,31.6-6,63.1-8.9,94.7c-0.7,7-0.7,7-7.4,5.3c-1.1-0.3-2.1-0.6-3.2-0.9
	c-7.6-2-7.8-2-7.3-9.6c0.2-3.3-0.3-5.2-3.9-5.9c-3.5-0.6-7-1.6-10.3-2.9c-4.1-1.6-6.1,0.1-7.5,3.8c-2.9,7.2-2.6,5.6-9.1,4.2
	c-3-0.6-5.8-1.6-8.7-2.6C790.4,1669,789.8,1668.4,788.8,1667.7z M819.1,1646.2c3.3,2.8,6.8,2.6,9.8,3.8c2.8,1.1,4-0.3,4.3-3
	c1.5-13,3-26,4.5-39.1c-0.4-0.1-0.8-0.2-1.2-0.3C830.8,1620.4,825,1633.1,819.1,1646.2z"/>
<path class="st0" d="M1094.9,1694.5c-3.4,1.8-6.5,1.8-9.5,2.1c-8.1,0.8-8.3,0.8-10.7-6.9c-1-3.3-2.6-4.5-5.9-3.8
	c-1.9,0.4-3.8,0.6-5.7,0.8c-3,0.4-6.5-0.2-8.9,1.2c-2.8,1.7-1.4,5.6-1.8,8.5c-0.3,2.4-1.5,3.5-3.7,3.6c-17.6,0.8-15.3,4.4-13.9-12.5
	c2.4-28.6,4.9-57.2,7.4-85.8c0.1-1.6,0.3-3.3,0.3-5c0-3.2,1.8-4.2,4.7-4.3c4.4-0.3,8.8-1,13.2-1.3c6.2-0.4,6.3-0.4,7.9,5.5
	c3.2,11.7,6.3,23.4,9.5,35.1C1083.6,1652.5,1089.2,1673.3,1094.9,1694.5z M1058.7,1626.8c-0.4,0.1-0.8,0.2-1.2,0.3
	c-0.8,12.4-1.6,24.8-2.4,37.2c-0.4,6.4-0.4,6.4,6.1,5.9c1.6-0.1,3.3-0.4,4.9-0.6c2-0.4,2.7-1.5,2.2-3.5
	C1065.1,1652.9,1061.9,1639.9,1058.7,1626.8z"/>
<path class="st0" d="M560.3,1447c2.4-1.6,4.5-2.6,6-4.2c5.6-5.9,5.9-12.9,1-17.6c-4.9-4.6-10.5-4.2-16.8,1.6
	c-9.5,8.8-18.8,17.9-28.2,26.8c-2.2,2.1-4.5,4.1-6.5,6.4c-4.6,5.2-4.9,11.2-0.9,15.7c3.9,4.4,10.1,4.8,15.8,1c2.5-1.7,4.1-4.4,7-5.6
	c3,1.3,4.7,4,6.8,6.1c6.8,7,6.8,7-1.1,13.5c-10.8,8.9-25.9,9.9-36.9,2.5c-15-10.1-17.7-30.8-5.7-45c3.2-3.8,7-7,10.6-10.4
	c9-8.6,17.9-17.2,27-25.6c7.8-7.2,17.1-10.3,27.5-7.9c12.4,2.8,20.4,10.6,23,23.2c2.7,13-2.7,23.1-12.2,31.5c-1.8,1.6-3.3,1.7-4.9,0
	C568.3,1455.4,564.9,1451.9,560.3,1447z"/>
<path class="st0" d="M1250.3,1654.2c-12.7-0.7-22.5-6.4-27.6-18c-7.1-16.1-13.8-32.5-19.8-49c-5.5-15.3,2.4-31.6,17-37.5
	c14.7-5.9,31,0.6,38.4,15.2c4.6,9.1,4.6,9.1-4.6,12.9c-0.5,0.2-1,0.4-1.5,0.6c-6.7,2.7-6.8,2.8-9.9-3.8c-2-4.3-5-7.4-9.7-8.2
	c-7.2-1.3-13.6,5.1-12.5,12.6c0.4,2.4,1.4,4.7,2.3,7c5.2,12.8,10.4,25.5,15.6,38.3c0.8,2,1.7,4.1,3,5.9c3.1,4.4,7.7,6.1,12.2,4.7
	c4.9-1.6,7.9-5.8,7.9-11.3c0-1.4-0.2-2.7-0.6-4.1c-0.6-2.6-3.3-5.1-2.2-7.7c1.3-2.8,5.1-2.8,7.8-4.1c2-1,4.1-1.6,6.1-2.4
	c1.6-0.7,2.7,0,3.3,1.4c5.1,10.4,6.4,21,0.8,31.7C1271,1648.8,1261.9,1653.6,1250.3,1654.2z"/>
<path class="st0" d="M1463.2,1523.2c-4.7,4.4-8.6,10.7-13.7,11c-5,0.2-7.8-6.9-11.4-11c-18.5-20.8-36.8-41.8-55.1-62.7
	c-4.5-5.2-5.6-4.3,0.8-10c8.6-7.6,8.6-7.6,15.9,0.7c19.1,21.7,38.3,43.4,57.5,65C1459,1518.3,1460.8,1520.4,1463.2,1523.2z"/>
<path class="st1" d="M634.7,1513c0.3-0.4,0.5-0.8,0.8-1.1c0.1,0.4,0.4,0.8,0.3,1.1c-0.2,0.6-0.7,0.5-1.2,0
	C634.6,1512.9,634.7,1513,634.7,1513z"/>
</svg>
