<svg width="48" height="48" viewBox="0 0 48 48" fill="none" xmlns="http://www.w3.org/2000/svg">
<path d="M44.3672 23.6718L25.0594 4.37801C24.9204 4.23872 24.7553 4.12821 24.5735 4.05281C24.3917 3.97741 24.1968 3.9386 24 3.9386C23.8032 3.9386 23.6084 3.97741 23.4266 4.05281C23.2448 4.12821 23.0797 4.23872 22.9406 4.37801L3.63284 23.6718C3.07034 24.2343 2.75159 24.9983 2.75159 25.7952C2.75159 27.4499 4.0969 28.7952 5.75159 28.7952H7.78596V42.5624C7.78596 43.3921 8.45627 44.0624 9.28596 44.0624H21V33.5624H26.25V44.0624H38.7141C39.5438 44.0624 40.2141 43.3921 40.2141 42.5624V28.7952H42.2485C43.0453 28.7952 43.8094 28.4811 44.3719 27.914C45.5391 26.7421 45.5391 24.8436 44.3672 23.6718V23.6718Z" fill="white"/>
</svg>
