<?xml version="1.0" encoding="utf-8"?>
<!-- Generator: Adobe Illustrator 22.1.0, SVG Export Plug-In . SVG Version: 6.00 Build 0)  -->
<svg version="1.1" id="Layer_1" xmlns="http://www.w3.org/2000/svg" xmlns:xlink="http://www.w3.org/1999/xlink" x="0px" y="0px"
	 viewBox="0 0 1000 1000" style="enable-background:new 0 0 1000 1000;" xml:space="preserve">
<style type="text/css">
	.st0{fill:#CF2F2E;}
	.st1{fill:#694403;}
	.st2{fill:#FEFEFE;}
</style>
<g>
	<path class="st0" d="M480.1,477.7c11.9,0,23.8,0,35.8,0c6.1,0,12.2,0,18.3-0.1c9.6,0,19.2,0,28.7,0c17.9,0.2,35.8,0.2,53.8,0
		c4.3,0,8.6-0.1,13,0c1.5,0,2.4-0.4,3-1.8c6.7-14.2,13.4-28.4,20.1-42.6c0.6-1.2,1.1-2.5,1.6-3.8c2.1-5.3,9.6-7.7,14.2-6.5
		c2.4,0.6,4.9,0.6,7.3,0.6c15.2,0,30.4,1.1,45.7,1.3c10.7,0.1,21.3,0.6,32,1c21.7,0.9,43.5,1.5,65.2,2.2c3.9,0.1,7,1.6,8.6,5.3
		c1.5,3.5,0.4,6.4-1.7,9.5c-5.9,8.5-11.4,17.2-17.1,25.8c-11.8,17.9-23.6,35.7-35.3,53.6c-8.9,13.6-17.7,27.3-26.7,40.9
		c-7.6,11.6-15.7,23-22.9,34.8c-6.6,10.8-15.4,19.5-24.4,28.1c-14.8,14.2-29.3,28.7-44,43.1c-1.1,1-1.3,2.1-1.2,3.5
		c0.6,6.9,1.3,13.8,1.8,20.7c0.6,7,1,14,1.6,21c1.2,14.5,2.6,29,3.7,43.5c0.6,8.4,1.3,16.7,2,25.1c0.3,3.8-1.6,7.1-4.6,9.5
		c-5.3,4.1-10.6,8.1-15.9,12.1c-7.6,5.7-15.2,11.5-22.8,17.1c-1.3,1-1.7,2.1-1.7,3.7c0,35.9,0,71.7,0,107.6c0,4.9-1.6,9.1-6,11.8
		c-2.1,1.3-4.5,1.4-6.7,2.1c-6,1.8-12,3.4-18,5c-5.9,1.6-11.9,3-17.8,4.6c-4.4,1.2-8.8,2.2-13.1,3.6c-4.5,1.4-9.2,2.4-13.8,3.6
		c-4.2,1.1-8.4,2.3-12.7,3.4c-4.9,1.3-9.8,2.6-14.8,3.9c-5.7,1.5-11.4,3.1-17.1,4.7c-3.8,1.1-7.5,1.3-11.4,0.1
		c-7.3-2.1-14.7-3.9-22-6c-5.7-1.7-11.6-2.9-17.3-4.7c-5.9-1.8-11.9-3.1-17.8-4.7c-5.6-1.5-11.3-2.9-16.9-4.5
		c-6.1-1.7-12.3-3.4-18.5-4.9c-5.5-1.4-10.9-3-16.4-4.5c-1.3-0.4-2.7-0.6-4-1.1c-5.3-2.1-7.5-4.9-7.6-11.8
		c-0.3-23.4-0.1-46.8-0.1-70.2c0-12.7,0-25.4,0-38.1c0-1.8-0.5-3-2-4c-6.4-4.7-12.8-9.5-19.2-14.3c-6.3-4.7-12.6-9.4-18.9-14.2
		c-3.4-2.5-5-6-4.8-10.1c0.2-3.5,0.7-7,0.9-10.4c0.6-10.4,1.8-20.8,2.4-31.2c0.6-10.2,2-20.4,2.7-30.6c0.9-12.3,1.9-24.7,3.1-37
		c0.2-2.2-0.4-3.6-1.9-5.1c-9.1-8.9-18-18-27.2-26.7c-10.8-10.1-21-20.7-31.7-30.9c-5.3-5.1-8.6-11.6-12.5-17.6
		c-9-13.6-18-27.3-26.9-41c-8.6-13.2-17.2-26.5-25.8-39.7c-8.4-12.9-16.9-25.7-25.3-38.5c-6.7-10.2-13.4-20.3-20.1-30.6
		c-1.8-2.8-3.3-5.9-1.3-9.4c2.1-3.8,5.4-5.7,9.8-5.8c18.6-0.6,37.3-1,55.9-1.9c15.8-0.8,31.6-1.3,47.3-1.7
		c14.2-0.4,28.3-0.9,42.5-1.4c3.6-0.1,7.2-0.8,10.8,0.7c2.1,0.9,3.9,2,5,4c4.5,8.2,8,16.9,12.1,25.3c3.7,7.5,7.1,15.2,10.6,22.8
		c0.6,1.4,1.5,1.8,3,1.8c8.2,0,16.5,0.1,24.7,0.1c17.6,0,35.2,0,52.9,0c0.3,0,0.6-0.1,1-0.1c9.6,0,19.1,0,28.7,0
		C468,478,474.1,477.8,480.1,477.7z M480.7,666c0.1,0,0.1,0,0.2,0c0-34,0-68,0-101.9c0-1.9-0.5-3.2-1.9-4.4
		c-6.1-5.2-11.8-10.9-17.9-16.3c-9-7.9-17.7-16.1-26.5-24.2c-6.1-5.6-12.2-11.3-18.3-16.9c-1.1-1-2.1-2-3.8-2
		c-17.3,0-34.5,0-51.8-0.1c-1.6,0-2,0.8-1.5,1.9c1,2.6,0.9,5.3,1.5,7.9c1,4.7,1.7,9.4,2.5,14.1c1.2,6.7,2.5,13.4,3.7,20.1
		c0.8,4.6,1.7,9.3,2.5,13.9c0.8,4.8,1.6,9.6,2.4,14.4c1.1,6.6,2.8,13.1,3,19.9c0.4,11.3,1.7,22.5,1.9,33.8c0,1.5,1,2,2,2.5
		c5.4,3,10.8,6,16,9.3c8.6,5.5,17.2,10.7,25.8,16.2c12.7,8,25.3,16.2,38.1,24.1c4,2.5,6.2,5.7,5.8,10.4c-0.7,7.7-1.6,15.4-2.5,23
		c-0.9,7.9-1.9,15.8-2.9,23.7c-0.5,3.8-0.9,7.6-1.4,11.4c-0.9,7.2-1.8,14.4-2.7,21.5c-0.2,1.7,0.4,2.2,2.1,2.2
		c6.1-0.1,12.2,0,18.3,0c5.2,0,5.2,0,5.2-5.3C480.7,732.2,480.7,699.1,480.7,666z M503.9,671.7c0,32,0,64,0,96.1
		c0,2.2,0.5,2.9,2.8,2.9c6.9-0.2,13.9-0.1,20.8,0c2,0,2.3-0.6,2-2.4c-0.7-4-1.2-8-1.7-12.1c-0.9-7.6-1.7-15.2-2.6-22.8
		c-0.8-6.9-1.8-13.7-2.6-20.6c-0.9-7.5-1.7-15-2.5-22.5c-0.5-4.6,0.9-8.5,4.8-11.2c2.1-1.4,4.2-2.8,6.3-4.1
		c16.1-9.6,31.6-20.2,47.8-29.6c9.3-5.4,18.2-11.6,27.3-17.4c1.4-0.9,1.8-1.9,1.9-3.6c0.5-14.3,0.2-28.6,2.7-42.8
		c1.2-6.9,2.2-13.8,3.4-20.6c1.9-10.6,4-21.2,5.9-31.8c1.7-9,3.2-18.1,4.9-27.1c0.3-1.5-0.1-1.8-1.6-1.8
		c-17.3,0.1-34.5,0.1-51.8,0.1c-1,0-1.9,0.2-2.7,0.9c-3.6,3.3-7.2,6.6-10.8,9.9c-7.7,7.2-15.3,14.4-23.1,21.5
		c-10.1,9.3-20.4,18.5-30.6,27.7c-1.1,1-1.3,2-1.4,3.4c-0.2,4.6,0.5,9.1,0.5,13.6C504,608.8,503.9,640.2,503.9,671.7z M594.9,903.6
		c0.8-0.5,0.6-1.2,0.6-1.7c-0.2-31.3-0.1-62.6,1-93.9c0.2-5.5,0.3-11.1,0.6-16.6c1-16.7,2.2-33.5,3.2-50.2
		c0.5-9.2,1.1-18.4,1.6-27.6c0.6-9.6,1.2-19.2,1.9-28.7c0.6-8.4,1.1-16.7,1.6-25.1c0.1-1.5,1.1-3.5-0.2-4.3c-1-0.6-2.5,1-3.7,1.8
		c-13.8,8.7-27.5,17.4-41.2,26c-4.9,3.1-9.9,6.2-14.9,9.3c-1.5,0.9-2,1.9-2,3.7c0.1,2.8,0.8,5.5,1.1,8.2c0.8,7.5,1.7,15,2.6,22.6
		c0.9,7.6,2,15.1,2.7,22.7c0.4,5,1.1,10,1.8,15c0.8,5.5,1.6,11.1,2.3,16.6c0.6,4.7,1.1,9.4,1.7,14c0.8,5.7,1.9,11.4,2.4,17.2
		c0.8,8.6,2.5,17,3.6,25.6c0.8,5.9,1.8,11.7,2.6,17.6c1,7.4,0.4,15.3,7.3,20.6c0.6,0.4,0.9,1.2,1.4,1.7c4.1,4.8,8.2,9.7,12.4,14.5
		C588.5,896.3,591.7,900,594.9,903.6z M389.7,903.3c1-0.2,1.3-1.2,1.8-1.8c7.6-8.9,15-18,23-26.6c3.1-3.3,4.2-6.9,4.8-11
		c1.2-8.5,2.1-17.1,3.4-25.6c1.7-10.6,3.1-21.2,4.8-31.8c1.8-11.5,2.9-23.1,4.5-34.6c0.4-3.3,0.6-6.7,1.2-9.9
		c1.4-8,1.7-16.2,2.8-24.2c0.9-6.8,1.7-13.5,2.4-20.3c0.7-7.2,1.8-14.3,2.8-21.5c0.2-1.3-0.3-2.1-1.4-2.8c-3.8-2.3-7.6-4.8-11.3-7.1
		c-15.9-10-31.9-20.1-47.8-30.1c-0.4-0.3-0.8-0.7-1.3-0.5c-0.7,0.3-0.5,1-0.4,1.5c0.1,3.9,0.8,7.8,0.9,11.7
		c0.1,7.3,0.9,14.6,1.3,21.9c0.9,17.8,2,35.6,3.3,53.4c0.6,8,1.1,16.1,1.6,24.1c0.5,8,1,16.1,1.5,24.1c0.8,14.4,1.1,28.8,1.6,43.2
		c0.7,22,0.2,44,0.2,66C389.2,901.9,388.9,902.7,389.7,903.3z M218.8,492c-0.1,0.1-0.3,0.3-0.4,0.4c0.6,1,1.2,2.1,1.8,3.1
		c10,15.4,20.2,30.6,30.1,46.1c9.7,15,19.4,30,29.2,44.9c0.7,1.1,1.2,1.3,2.5,1.1c7.9-1.2,15.7-2.3,23.6-3.3
		c8.9-1.2,17.7-2.3,26.6-3.4c0.5-0.1,1.1,0,1.3-0.5c0.3-0.6-0.2-1-0.7-1.4c-2.1-1.6-4.1-3.2-6.2-4.7c-6.7-5.1-13.3-10.1-20-15.2
		c-6.7-5.1-13.3-10.2-19.9-15.2c-6.2-4.7-12.5-9.4-18.7-14.1c-5.1-3.9-10.1-7.9-15.2-11.7c-6.8-5.2-13.6-10.3-20.4-15.5
		C228,499,223.4,495.5,218.8,492z M766.3,492.4c-3.9,1.9-7.1,4.6-10.4,7.1c-9.6,7.3-19.3,14.6-28.9,21.9
		c-6.4,4.9-12.8,9.8-19.2,14.6c-8.3,6.3-16.6,12.6-24.9,18.9c-4.9,3.7-9.8,7.6-14.7,11.3c-5.3,4-10.7,8-16,12
		c-0.6,0.5-1.7,0.9-1.3,1.8c0.3,0.9,1.4,0.6,2.2,0.6c6.2,0.8,12.4,1.5,18.6,2.4c10.4,1.4,20.8,2.9,31.1,4.4c0.8,0.1,1.4,0,1.8-0.8
		c3.1-4.8,6.2-9.5,9.3-14.3c4.8-7.4,9.6-14.7,14.3-22.1c5.6-8.6,11.3-17.3,16.9-25.9c4.9-7.5,9.9-15.1,14.8-22.6
		C762.2,498.8,764.3,495.6,766.3,492.4z M480.8,944.2c1-3.4-0.9-6.1-3.9-8.3c-1-0.8-2.1-1.6-3-2.5c-13.7-13.4-27.8-26.5-41.8-39.7
		c-2.3-2.2-2.3-2.2-4.4,0.2c-0.3,0.3-0.5,0.6-0.8,0.9c-8.4,9.8-16.9,19.6-25.3,29.4c-0.9,1-1.7,2.2-2.6,3.2
		c-0.8,1.1-0.5,1.4,0.8,1.7c3.8,0.8,7.5,1.8,11.3,2.8c5.4,1.4,10.8,3,16.1,4.4c6,1.6,12,3.2,18.1,4.8c4.3,1.1,8.6,2.4,12.9,3.5
		c6.3,1.6,12.5,3.2,18.7,5.1c3.7,1.1,4,0.9,4-2.9C480.8,946.1,480.8,945.5,480.8,944.2z M503.9,943.9c0,1.8,0.1,2.9,0,4
		c-0.2,2.1,0.7,2.5,2.5,2c5.8-1.6,11.6-3.1,17.3-4.6c4.6-1.2,9.2-2.5,13.8-3.7c5.9-1.6,11.7-3.1,17.6-4.7c5.8-1.6,11.5-3.2,17.3-4.7
		c4-1.1,8-2.1,12-3.2c1.5-0.4,1.6-1.1,0.6-2.3c-1.3-1.5-2.6-3.1-3.9-4.7c-8.3-9.7-16.7-19.3-25-29c-1-1.2-1.9-1.4-3-0.2
		c-0.6,0.6-1.2,1.1-1.8,1.6c-6.5,6-12.7,12.4-19.3,18.3c-8.3,7.6-16.2,15.5-24.5,23.1C504.8,938.4,503.1,940.8,503.9,943.9z
		 M480.8,821.6c0-8.9,0-17.7,0-26.6c0-1,0.2-2.1-1.5-2.1c-8.6,0.1-17.3,0-25.9,0c-1,0-1.5,0.2-1.6,1.3c-0.6,4.2-1.3,8.3-1.9,12.5
		c-1.2,8.8-2.1,17.7-3.5,26.5c-0.5,3-0.8,6.1-1.3,9.1c-1,5.5-1.7,11.1-2.5,16.6c-0.1,0.8,0,1.3,1,1c6.5-1.9,13.1-3.6,19.7-5.2
		c5-1.2,9.8-2.7,14.8-3.7c2.2-0.4,2.8-1.2,2.8-3.3C480.8,839.1,480.8,830.4,480.8,821.6z M542.4,860.2c-1.4-3.1-1-5.8-1.5-8.4
		c-1-5.9-1.8-11.9-2.7-17.8c-0.9-6.5-1.7-13.1-2.6-19.6c-0.9-6.4-1.9-12.8-2.7-19.3c-0.2-1.7-0.7-2.1-2.3-2.1
		c-8.1,0.1-16.3,0.1-24.4,0c-1.9,0-2.3,0.7-2.3,2.4c0.1,4.9,0,9.8,0,14.7c0,12.6,0,25.2,0,37.9c0,2,0.6,2.8,2.7,3.2
		c4.5,0.9,8.9,2.3,13.4,3.4C527.2,856.3,534.5,858.2,542.4,860.2z M234.1,473.5c-0.2,0.1-0.7,0.2-0.7,0.4c-0.2,0.7,0.5,0.9,0.9,1.3
		c6,4.6,12,9.2,18,13.8c6.6,5.1,13.2,10.2,19.9,15.3c10.7,8.1,21.4,16.1,32.1,24.3c8.1,6.2,16.2,12.5,24.3,18.7
		c0.5,0.4,1.1,1.2,1.9,0.6c0.6-0.5,0-1.2-0.3-1.7c-7.5-15.4-15.1-30.8-22.6-46.3c-0.6-1.2-1.3-2-2.8-2.4c-2.4-0.5-4.6-1.5-6.9-2.3
		c-10-3.4-19.9-6.7-29.9-10.1c-8.7-2.9-17.3-5.9-26-8.9C239.4,475.3,236.8,474.5,234.1,473.5z M751.4,474.4c-1-1.1-1.7-0.6-2.5-0.3
		c-5.7,1.9-11.3,3.9-17,5.8c-8.7,3-17.4,6-26.2,8.9c-8.7,3-17.5,5.9-26.2,8.8c-1.3,0.4-2.1,1-2.7,2.2c-1.8,3.9-3.6,7.8-5.5,11.7
		c-5.6,11.5-11.3,22.9-17,34.3c-0.3,0.6-1,1.4-0.4,2c0.8,0.7,1.5-0.2,2.1-0.7c6.5-5,13-10,19.6-14.9c6.6-5,13.2-10,19.8-15
		c8.1-6.2,16.1-12.3,24.2-18.5c5.2-3.9,10.4-7.8,15.5-11.8c5-3.8,9.9-7.6,14.9-11.4C750.5,475.2,750.9,474.8,751.4,474.4z
		 M230.1,448.2c1.4-0.3,2.1,1.1,3.3,1.4c9.2,2.8,18.3,6.2,27.4,9.3c13.3,4.6,26.7,9,40.1,13.5c4.1,1.4,4.2,1.4,4.5-3
		c0.4-7,1.4-13.9,1.7-20.9c0.1-2.9,0.4-2.9-2.5-2.8c-13.2,0.4-26.4,0.9-39.5,1.3C253.4,447.5,241.7,447.8,230.1,448.2z M754.4,447.6
		c-7.7,0-15.4,0.2-23.1,0c-17.5-0.5-35-1.2-52.5-1.9c-1.6-0.1-1.9,0.5-1.7,2c0.4,3,0.7,6,0.9,9c0.3,5.1,1.3,10.2,1.2,15.3
		c0,1.2,0.3,1.9,1.7,1.4c11.8-4,23.6-8.1,35.4-12.1c8.2-2.8,16.4-5.6,24.6-8.4C745.5,451.4,750.1,450.3,754.4,447.6z M636.5,601.1
		c3.9,14.5,7.7,28.7,11.5,43c0.5-0.3,0.7-0.4,0.9-0.5c5.4-5.3,10.6-10.8,16.1-15.9c6.3-5.7,12.1-11.8,18.2-17.6
		c0.6-0.5,1.7-0.9,1.3-1.8c-0.4-1-1.5-0.7-2.4-0.8c-6.6-0.5-13.2-1.8-19.8-2.5C653.8,604,645.4,602.5,636.5,601.1z M346.6,601.3
		c-2,0.7-4.2,0.6-6.4,0.9c-12.7,1.7-25.4,3.5-38.1,5.2c-0.7,0.1-1.6-0.1-2,0.7c-0.3,0.9,0.6,1.3,1.1,1.7
		c6.2,6.1,12.4,12.3,18.6,18.4c5,4.9,10.1,9.7,15.1,14.5c0.7,0.7,1.6,2,2.1-0.2c0.9-4.3,2-8.5,3.2-12.7c1.7-6,3.4-12,5-18
		c0.8-3,1.4-6,2.3-8.9C347.7,602.3,348.4,601.2,346.6,601.3z M480.4,908.1c0.2-0.4,0.4-0.6,0.4-0.7c0-10.6,0-21.2,0-31.8
		c0-1.7-0.8-1.9-2.1-1.6c-1.7,0.4-3.4,0.9-5.2,1.3c-6.3,1.6-12.7,3.2-19,4.9c-0.8,0.2-1.8-0.1-2.1,0.8c-0.3,1.1,0.8,1.5,1.4,2.1
		c4.8,4.6,9.7,9.2,14.6,13.7C472.3,900.5,476,904.5,480.4,908.1z M480.3,530.5c0.3-0.4,0.4-0.5,0.4-0.7c0-9.2,0-18.4,0.1-27.6
		c0-1.5-1-1.4-2-1.4c-9.3-0.1-18.5-0.2-27.8-0.3c-0.7,0-1.7-0.4-2,0.4c-0.4,1,0.7,1.3,1.3,1.8c6.4,6,12.9,12,19.3,18
		C473.2,523.9,477,526.9,480.3,530.5z M503.9,890.8C503.9,890.8,503.9,890.8,503.9,890.8c0,5.1,0,10.2,0,15.4c0,0.5-0.2,1.1,0.4,1.3
		c0.6,0.3,0.8-0.3,1.2-0.6c2.7-2.5,5.5-5.1,8.2-7.6c5.7-5.4,11.4-10.8,17.1-16.3c0.5-0.5,1.5-0.7,1.3-1.6c-0.2-0.9-1.2-1-2-1.2
		c-7.9-2.1-15.8-4.1-23.7-6.1c-1.6-0.4-2.6-0.3-2.5,1.9C504,880.9,503.9,885.8,503.9,890.8z M503.9,515.4
		C503.9,515.4,503.9,515.4,503.9,515.4c0,4.4,0,8.8-0.1,13.2c0,0.5-0.1,1.1,0.4,1.3c0.6,0.3,0.8-0.3,1.2-0.6
		c9.7-8.9,19.4-17.9,29.1-26.8c0.5-0.4,1.3-0.8,1.1-1.5c-0.3-1-1.2-0.5-1.9-0.5c-9.3-0.1-18.6,0-27.8,0.3c-1.5,0-2,0.4-2,2
		C504,507,503.9,511.2,503.9,515.4z M619.7,793.3c5.7-4.2,11.1-8.2,16.6-12.2c1.1-0.8,1.3-1.6,0.6-2.9c-2.5-4.8-4.9-9.8-7.2-14.7
		c-2-4.2-3.9-8.4-5.9-12.5c-0.2-0.4-0.3-1.1-0.9-1c-0.8,0-0.7,0.8-0.8,1.3c0,0.5-0.1,1-0.1,1.5c-0.7,11-1.4,22.1-2.1,33.1
		C619.8,788.2,619.4,790.5,619.7,793.3z M362.1,749.7c-0.2,0-0.5,0-0.7-0.1c-4.6,9.6-9.2,19.2-13.8,28.7c-0.6,1.3-0.2,2,0.7,2.7
		c3.2,2.5,6.3,5.1,9.7,7.4c2.3,1.5,4.1,3.8,6.9,4.7C364,778.5,363,764.1,362.1,749.7z M327.1,477c-0.6,5.7-1.2,11.4,2.5,16.4
		c0.4,0.5,0.6,1.2,0.9,1.8c2.4,4.9,4.8,9.8,7.1,14.4C336.6,498.1,333.6,487,327.1,477z M656.8,477.6c-5.9,10-9,20.5-9.7,31.7
		c3.6-7.2,7.3-14.3,10.4-21.7C658.8,484.5,657.9,481,656.8,477.6z M351.1,697c-0.7,8.9-1.5,17.4-2.2,25.9c2.9-5,5.4-10.1,7.9-15.2
		c0.4-0.8,1.2-1.7,0.2-2.7C354.7,702.7,353.3,699.8,351.1,697z M635.6,723.5c-0.6-8.5-1.7-17.2-1.9-26.2c-2.4,2-3.5,4.7-5.4,6.7
		c-1.3,1.4-1.1,2.6-0.3,4.1C630.8,713.1,632.5,718.8,635.6,723.5z M356.6,666.2c0-3.5,0-6.6,0-9.7
		C356.9,659.7,352.6,662.9,356.6,666.2z M628.3,657.9c-0.4,2.7-0.6,5.3-0.3,8.3C631.2,663.2,628.5,660.5,628.3,657.9z"/>
	<path class="st1" d="M616.7,477.7c-17.9,0.2-35.8,0.2-53.8,0c0.8-1.8,1-3.8,1.6-5.6c1.9-5.5,3.3-11.2,4.9-16.8
		c1.5-5.2,3-10.3,4.5-15.5c1.6-5.6,3.3-11.3,4.9-16.9c1.1-4,2.2-8.1,3.4-12.1c1.3-4.4,2.6-8.8,3.9-13.2c1.3-4.3,2.6-8.6,3.9-13
		c1.1-3.9,2.2-7.7,3.3-11.6c1.3-4.4,2.5-8.8,3.8-13.2c0.5-1.7,1.1-3.4,0.5-5c-1.3-3.1-3-5.9-4.7-9c-0.3,0.4-0.4,0.6-0.5,0.8
		c-3,6.2-5.7,12.6-8.5,19c-2.8,6.4-5.7,12.8-8.5,19.2c-4.2,9.3-8.4,18.6-12.4,28c-2.7,6.3-5.6,12.5-8.3,18.7
		c-2.8,6.3-5.5,12.5-8.4,18.7c-3.5,7.5-6.7,15.2-10.1,22.7c-0.7,1.5-1.9,2.8-1.9,4.6c-6.1,0-12.2,0-18.3,0.1
		c3.8-8.4,7.7-16.8,11.4-25.3c4.2-9.5,8.4-19,12.7-28.5c2.8-6.2,5.5-12.4,8.3-18.5c5.1-11.2,9.9-22.5,14.9-33.8
		c3.3-7.5,6.8-15,10.1-22.5c3.6-8.2,7.1-16.4,10.8-24.5c1.4-3.1,3.6-5,7.2-5.4c8.9-0.9,17.8-2,26.7-3c10.9-1.3,21.8-2.6,32.7-3.9
		c7.1-0.8,14.2-1.6,21.4-2.3c3.2-0.3,6.3-1.2,9.5-1.1c1.9,0,1.5-1.3,1.5-2.4c0-9.5,0-19.1,0-28.6c0-5.9,0-11.7,0-17.6
		c0-1.6-0.4-2.8-1.5-3.9c-11.8-13.6-23.5-27.2-35.3-40.9c-10.3-12-20.6-24.1-31-36.1c-2.9-3.4-3.7-8.2-1.5-11
		c2.3-2.9,6.5-4.7,11.6-2.2c8.9,4.3,18,8.1,27,12.3c7.7,3.5,15.4,7,23.1,10.5c6.9,3.1,13.8,6.2,20.7,9.3c7,3.1,13.9,6.4,20.9,9.4
		c7.6,3.3,15.1,6.7,22.6,10.3c1,0.5,2,0.5,2.9,1.1c2.9,2,4.2,4.6,4.2,8.2c-0.1,23.8-0.1,47.6-0.1,71.4c0,3.1,0,3,2.9,2.4
		c3.7-0.7,7.4-0.9,11.1-1.3c4.2-0.4,8.4-1.3,12.6-1.3c1,0,1.7-0.4,2.4-1.3c7.2-9.5,14.5-19,21.7-28.5c3.7-4.9,7.3-9.8,11-14.6
		c0.9-1.2,0.7-2.1-0.1-3.3c-6.5-9.4-12.9-18.8-19.3-28.1c-5-7.3-9.9-14.7-15.2-21.8c-2.9-3.9-2.7-8-2.2-12.3
		c1-7.8,1.9-15.5,2.9-23.2c0.8-6.5,1.8-13.1,2.6-19.6c0.9-7.1,1.7-14.2,2.6-21.3c0.9-7.2,1.9-14.3,2.8-21.5c0.5-4,0.9-8.1,1.4-12.1
		c0.8-6.5,1.6-13.1,2.4-19.6c0.9-7.8,1.9-15.7,2.8-23.5c0.7-5.6,1.3-11.3,2.2-16.9c0.6-4.2,4.6-7.5,8.6-7.2c4.6,0.4,7,3.5,8.1,7.9
		c1.3,5.3,2.5,10.7,3.8,16c1.2,4.8,2.3,9.6,3.5,14.3c0.9,3.7,2,7.3,2.8,11c0.7,3.6,1.6,7.1,2.5,10.6c1.3,5.2,2.6,10.3,3.9,15.5
		c1.2,5,2.3,10.1,3.5,15.1c1.1,4.7,2.3,9.4,3.4,14.2c1.3,5.3,2.7,10.5,3.8,15.8c1.7,7.7,4,15.1,9,21.4c2.4,3,4.3,6.5,6.4,9.8
		c0.3,0.5,0.5,1.3,1.4,1.2c0.7-0.1,0.6-0.8,0.8-1.3c1.4-3.5,2.9-7,4.4-10.5c3.5-8.2,6.8-16.5,10.4-24.7c2.2-4.9,4.2-9.8,6.2-14.7
		c3.4-8.3,7.1-16.5,10.5-24.9c1.7-4.2,3.6-8.3,5.4-12.4c2.1-4.8,4-9.6,5.9-14.5c1.2-3.1,4.7-5.4,8.3-5.3c3.5,0.2,6.4,2.6,7.4,6
		c0.4,1.5,0.6,3,0.6,4.6c0,13.3,0,26.6,0,39.9c0,33.6,0.2,67.2-0.1,100.7c-0.1,10.1,0.6,20.2,0.3,30.3c-0.1,2.3-0.4,4.5-0.5,6.8
		c-0.1,3.3-2.6,5.2-4.4,7.4c-13.9,16.6-28.1,33-41.9,49.7c-11.4,13.9-23.6,27.2-34.7,41.3c-4.3,5.5-8.8,9-16,9.3
		c-6.8,0.3-13.5,1.6-20.3,2.7c-9.2,1.4-18.4,2.2-27.6,3.8c-8.9,1.5-17.9,2.3-26.9,3.5c-8.8,1.2-17.5,2.6-26.3,3.9
		c-5.7,0.8-11.5,1.5-17.2,2.3c-6.9,0.9-13.8,1.9-20.8,2.9c-5.7,0.8-11.4,1.6-17.2,2.3c-7,0.9-14,1.8-21,2.9c-2.6,0.4-5.4,0.4-8,1
		c-1,0.2-1.5,0.5-1.6,1.7c-0.7,5.5-1.5,11-2.1,16.5c-0.7,6.2-1.8,12.4-2.6,18.5c-0.9,6.8-1.6,13.5-2.5,20.3
		c-0.8,6.3-2,12.5-2.6,18.8C617.6,469.2,616.2,473.4,616.7,477.7z M784.4,321c-2.2-1.9-4.4-3.9-6.6-5.8c-0.7-0.6-1.5-0.8-2.5-0.7
		c-6.8,0.8-13.6,1.6-20.4,2.4c-6.9,0.8-13.8,1.9-20.8,2.5c-6.1,0.6-12.1,1.3-18.2,2c-6.1,0.7-12.2,1.7-18.4,2.2
		c-8.1,0.6-16.2,1.8-24.2,2.6c-3.6,0.4-7.1,0.6-10.7,1.1c-6.8,0.9-13.5,1.8-20.3,2.5c-8,0.9-16,1.5-24,2.6c-3.9,0.5-8,0.5-11.9,1.5
		c-1.2,0.3-1.5,0.4-0.8,1.6c1.8,3,3.4,6,5.1,9.1c0.4,0.8,0.9,1.1,1.9,1c9.1-1.3,18.2-2.4,27.3-3.7c8.6-1.2,17.2-2.6,25.8-3.8
		c8.8-1.2,17.7-2.2,26.6-3.6c3.1-0.5,6.1-0.8,9.2-1.3c5.7-1,11.4-1.7,17.1-2.5c6.5-0.9,13-1.7,19.5-2.6c5.8-0.8,11.6-1.8,17.3-2.6
		c8.7-1.2,17.4-2.4,26.1-3.6C782.6,321.9,783.7,322,784.4,321z M861.1,244c-0.3-0.8-0.9-1.1-1.5-1.3c-3.6-1.5-7.3-3.1-11-4.3
		c-1.9-0.6-3.7-2.5-5.6-1.9c-1.9,0.6-2.6,3-3.8,4.6c-6.5,8.4-12.9,16.7-19.3,25.1c-9.4,12.3-18.7,24.6-28,36.9
		c-0.9,1.2-0.9,1.9,0.2,2.8c3.1,2.6,6.2,5.2,9.2,8c1.6,1.5,2.4,1.2,3.7-0.4c5.1-6.5,10.2-12.9,15.4-19.3
		c13.4-16.5,26.7-33,40.1-49.5C860.6,244.6,860.8,244.3,861.1,244z M883,146.9c-2.7,5.7-5.2,11.3-7.5,16.9c-3.8,9-7.4,18-11.3,26.9
		c-4.3,9.9-8.4,19.9-12.7,29.7c-0.5,1.1-0.4,1.6,0.7,2c4.5,1.7,9.1,3.1,13.4,5.3c2.1,1,3.2,1.1,3.4-1.7c0.1-1.1,0.5-2.4,0.7-3.6
		c0.8-4.6,1.4-9.3,2.4-13.9c1.4-7.1,2.4-14.2,3.8-21.3c0.9-4.7,1.7-9.4,2.4-14.1c1.1-7.1,2.6-14.1,3.9-21.2
		C882.4,150.3,882.7,148.6,883,146.9z M730.7,242.4c-2.3,1.8-4.1,3.5-6.2,4.7c-1.6,0.9-1.8,2-1.8,3.6c0.1,16.3,0.1,32.5,0.2,48.8
		c0,4.6,0,4.5,4.6,4.3c2.3-0.1,3.3-0.6,3.2-3.3c-0.2-6-0.1-12-0.1-18.1C730.7,269.2,730.7,256.1,730.7,242.4z M827.6,170.5
		c-0.2,0-0.3,0.1-0.5,0.2c-2.9,1.5-5.7,3-8.6,4.5c-0.8,0.4-1.1,0.8-0.4,1.9c6.5,10.1,12.9,20.2,19.4,30.3c0.7,1.1,1.3,0.9,1.8-0.4
		c1.2-3.1,2.8-6,3.9-9.1c0.4-1.1,1.3-2.3,0.3-3.8c-5-7.5-9.8-15.1-14.7-22.6C828.6,170.9,828.3,170.5,827.6,170.5z M812,115.2
		c-1,1.5-0.7,2.8-0.6,3.9c0.3,5.4,0.7,10.9,0.9,16.3c0.2,7.3,0.2,14.6,1,22c0.2,2,0.7,2,2.2,1.1c1.5-1,3.1-1.8,4.7-2.5
		c1.2-0.5,1.4-0.9,1-2.1c-0.7-2-1.1-4.2-1.6-6.3c-0.9-3.5-1.8-7-2.6-10.5c-0.8-3.3-1.9-6.7-2.5-10.1
		C813.9,123.1,812.3,119.5,812,115.2z M722.7,227.9c-12.6-5.6-24.7-11.5-37.8-16.9c1.2,1.1,1.8,1.8,2.6,2.3
		c8.6,6.5,17.4,12.7,25.8,19.6c1,0.8,1.7,0.8,2.7-0.1C717.9,231.3,720.1,229.9,722.7,227.9z"/>
	<path class="st1" d="M480.1,477.7c-6.1,0.1-12.1,0.2-18.2-0.1c0-0.2,0.2-0.5,0.1-0.7c-4.7-10.5-9.5-21-14.2-31.5
		c-2.7-5.9-5.3-11.9-7.9-17.9c-4.1-9.5-8.6-18.9-12.7-28.5c-2.7-6.2-5.6-12.3-8.2-18.5c-3.6-8.4-7.5-16.8-11.3-25.1
		c-1.4-3.2-2.6-6.5-4.5-9.6c-1.9,3.2-3,6.5-5.1,9.3c-0.3,0.4-0.4,0.9-0.2,1.4c1.5,5.1,3,10.2,4.6,15.3c0.8,2.5,1.6,5.1,2.3,7.6
		c0.9,3.3,1.8,6.7,2.7,10c1.1,3.9,2.4,7.8,3.5,11.8c1.7,5.8,3.3,11.6,4.9,17.4c1.1,4,2.3,7.9,3.5,11.9c1.9,6.6,3.7,13.2,5.6,19.8
		c1.6,5.4,3.2,10.8,4.9,16.2c1.2,3.7,1.7,7.7,3.3,11.3c-0.3,0-0.6,0.1-1,0.1c-17.6,0-35.2,0-52.9,0c0.4-3.9-0.7-7.8-1.2-11.6
		c-0.5-3.6-0.9-7.2-1.5-10.9c-1.6-10.4-2.8-20.8-4.1-31.2c-1.1-8.9-2.3-17.7-3.4-26.6c-0.3-2.3-1.2-4.6-1-7c0.1-1.2-0.9-1.1-1.7-1.3
		c-6.8-1-13.5-2-20.3-3c-8.9-1.3-17.9-2.5-26.8-3.7c-9.4-1.3-18.9-2.4-28.3-3.7c-5.7-0.8-11.4-1.7-17.1-2.5
		c-6.4-0.9-12.9-1.8-19.3-2.6c-5.6-0.8-11.2-2-16.9-2.6c-6.5-0.7-12.9-1.6-19.4-2.6c-9.8-1.5-19.7-2.2-29.5-3.8
		c-4.9-0.8-9.9-1.1-14.7-2.2c-2.2-0.5-3.8-1.8-5.3-3.6c-6.3-7.7-12.7-15.3-19.1-22.8c-10.9-13-21.9-26-32.9-39
		c-7.3-8.6-14.6-17.3-21.8-26c-2.9-3.5-5.8-7-8.7-10.5c-1.7-2-2.2-4.3-2.2-6.8c0-16.1,0-32.1,0-48.2c0-42.7-0.1-85.4-0.1-128.1
		c0-6.7,4.2-10.5,10.6-9.3c2.8,0.6,4.7,2.6,5.6,5c1.4,3.6,2.9,7.1,4.4,10.7c3.5,8.2,6.9,16.5,10.4,24.7c3.3,7.9,6.8,15.7,10.1,23.5
		c4.3,10.2,8.6,20.5,12.8,30.7c1.8,4.2,3.5,8.5,5.3,12.7c0.6,1.4,1.3,0.4,1.7-0.2c1.8-2.6,3.6-5.2,5.3-7.9c1.6-2.4,2.9-5.1,4.8-7.3
		c3-3.7,3.5-8.3,4.7-12.6c1.4-5.4,2.7-10.8,4-16.2c1.2-4.8,2.2-9.7,3.4-14.6c1.1-4.7,2.4-9.4,3.5-14.1c0.9-3.9,2.1-7.8,2.8-11.8
		c0.6-3.5,1.8-6.8,2.6-10.3c0.9-3.4,1.6-6.7,2.5-10.1c1.2-4.9,2.4-9.9,3.6-14.8c0.9-3.8,1.7-7.5,2.7-11.3c1.4-5.1,2.4-10.4,4-15.4
		c1-3.3,5.4-5.9,8.7-5.3c3.6,0.6,6.9,4.1,7.2,7.9c0.8,8.2,1.9,16.3,3,24.4c0.9,6.7,1.4,13.4,2.3,20.1c1.4,9.9,2.3,19.9,3.9,29.7
		c0.5,3.3,0.7,6.6,1.2,9.9c1.2,9.4,2.2,18.7,3.4,28.1c1.1,8.6,2,17.3,3.3,25.9c1.2,7.6,1.6,15.2,2.8,22.8c0.5,3.3-0.8,5.9-2.7,8.5
		c-5.2,7.2-10.1,14.5-15.1,21.8c-4.9,7.1-9.7,14.2-14.6,21.3c-1.6,2.3-3,4.6-4.8,6.8c-1.1,1.3-0.8,2.3,0.1,3.4
		c3.9,5,7.7,10,11.6,15.1c7.1,9.2,14.1,18.5,21.1,27.8c0.8,1,1.5,1.3,2.6,1.4c8.2,0.9,16.5,1.8,24.7,2.9c2.1,0.3,1.8-0.9,1.8-2.1
		c0-23.3,0.1-46.6-0.1-69.9c0-6.2,0.9-9.4,8.8-12.3c6.2-2.2,12-5.5,18-8.2c9.2-4.2,18.3-8.2,27.5-12.4c5.7-2.6,11.4-5.3,17.1-7.9
		c9.6-4.3,19.3-8.6,28.9-12.9c7.4-3.3,14.8-6.7,22.2-10.1c3.4-1.5,7.9-0.5,10.4,2.5c1.8,2.2,1.9,6.9-0.2,9.6
		c-2.7,3.5-5.5,6.8-8.4,10.2c-13.9,16.2-27.9,32.5-41.9,48.7c-5.7,6.7-11.4,13.4-17.2,20c-0.9,1.1-1.3,2.1-1.3,3.5
		c0,15.4,0.1,30.8,0,46.2c0,2.1,0.6,2.6,2.7,2.8c7.7,0.7,15.3,1.8,23,2.6c11.3,1.1,22.6,2.6,34,3.7c11.2,1.1,22.3,2.6,33.4,4.1
		c3.8,0.5,5.4,3.7,6.7,6.8c2.4,5.8,5,11.5,7.6,17.2c3.8,8.6,7.6,17.2,11.4,25.8c3.3,7.4,6.7,14.7,9.9,22c4.2,9.6,8.5,19.1,12.8,28.7
		c2.7,6.1,5.4,12.2,8.1,18.3c4.2,9.5,8.4,19,12.6,28.5C477,470.5,478.8,474,480.1,477.7z M220.6,314.5c-1.1-0.3-1.9,0.3-2.6,1
		c-1.6,1.4-3.3,2.7-4.8,4.1c-0.5,0.5-1.8,0.7-1.4,1.7c0.3,0.9,1.4,0.7,2.1,0.8c4.3,0.5,8.7,0.8,13,1.6c8.8,1.6,17.7,2.4,26.5,3.8
		c6.1,1,12.2,1.7,18.3,2.6c6.8,0.9,13.5,1.8,20.3,2.8c5.7,0.8,11.5,1.5,17.1,2.4c6.5,1,13,1.8,19.5,2.8c6,0.9,12.1,1.7,18.1,2.6
		c6.3,0.9,12.7,1.8,19,2.7c3.8,0.5,7.6,0.9,11.3,1.7c6.8,1.4,7.1,1.4,10.3-4.6c0.3-0.6,0.5-1.2,0.9-1.7c0.8-1.4,3-3,2.1-4.2
		c-0.8-1.1-3.3-0.9-5-1.1c-9-1.1-18.1-2.1-27.1-3.1c-12.2-1.4-24.4-2.9-36.6-4.2c-12.3-1.3-24.5-2.8-36.8-4.1
		c-10.9-1.2-21.8-2.6-32.7-3.6c-3.4-0.3-6.8-0.5-10.2-1.1C235,316,227.8,315.7,220.6,314.5z M193.3,315.2c0.4-0.3,0.8-0.6,1.3-1
		c2.1-1.8,4.2-3.6,6.3-5.4c4.3-3.8,4.4-3.9,1.1-8.4c-7.2-9.6-14.4-19.2-21.7-28.8c-3.9-5.1-7.9-10.2-11.7-15.3
		c-4.8-6.3-9.6-12.7-14.3-19.1c-0.7-0.9-1.3-1.1-2.4-0.6c-4.9,2.1-9.8,3.9-14.8,5.8c-1.8,0.7-2,1.6-0.7,3.2
		c5.3,6.4,10.6,13,15.9,19.5c4.9,6.1,9.9,12.1,14.8,18.2c8.3,10.3,16.7,20.6,25,30.9C192.3,314.6,192.5,315.2,193.3,315.2z
		 M113.6,146.8c-0.6,0.8-0.3,1.4-0.1,2.1c0.9,4.8,1.9,9.5,2.8,14.3c0.9,4.9,1.4,9.8,2.4,14.6c1.4,6.7,2.5,13.4,3.7,20.1
		c1.2,7.1,2.6,14.2,3.7,21.3c0.4,2.7,0.5,5.5,1.5,8.1c0.3,0.7,0.1,1.4,1.4,0.9c4.8-2,9.7-3.9,14.5-5.8c1-0.4,1.9-0.7,1.3-2.3
		c-2.8-6.5-5.5-13-8.3-19.5c-2.5-5.8-5.1-11.7-7.6-17.5c-3.4-8.1-6.8-16.2-10.1-24.3C117,154.9,115.3,151,113.6,146.8z M265.5,242.5
		c0,18.6,0,36.8,0,55c0,1.9-0.6,4.2,0.3,5.5c1,1.4,3.5,0.6,5.3,0.8c0.1,0,0.2,0,0.2,0c1.6,0.5,2.2,0,2.1-1.7c0-17.4,0-34.8,0-52.2
		c0-0.8,0-1.6-0.8-2.2C270.4,246.1,268.1,244.4,265.5,242.5z M157.3,208.7c0.8-0.6,1.2-1.3,1.7-2c2-3.2,4.1-6.4,6.1-9.6
		c4.3-6.6,8.5-13.2,12.8-19.8c1-1.4,0.2-1.9-0.7-2.4c-2.6-1.4-5.3-2.7-7.9-4.1c-1.1-0.6-1.5-0.2-2.1,0.8c-4.8,7.5-9.7,15-14.6,22.4
		c-0.6,0.9-0.8,1.5-0.3,2.6C154.2,200.4,155.8,204.4,157.3,208.7z M184.3,115.2c-0.3,3.6-1.6,6.8-2.4,10.2c-1.2,5-2.4,10-3.6,15.1
		c-1.1,4.7-2,9.4-3.5,14c-0.3,0.8,0.3,1.1,1,1.4c1.8,0.8,3.5,1.7,5.2,2.7c1.5,0.9,1.9,0.6,2-1.1c1.1-13.2,0.7-26.4,2-39.5
		C185,117,185.3,116.1,184.3,115.2z M311.4,211.3c-0.9-0.1-1.1-0.2-1.3-0.1c-9.3,4.2-18.6,8.4-27.8,12.7c-2.3,1.1-4.8,1.9-7,3.1
		c-0.7,0.4-2.3,0.9-0.4,2.1c1.7,1.1,3.3,2.3,4.9,3.7c1.4,1.1,2.4,1,3.7-0.1c4-3.2,8.1-6.2,12.2-9.3
		C300.7,219.4,305.9,215.5,311.4,211.3z"/>
	<path class="st2" d="M480.7,666c0,33.1,0,66.2,0,99.2c0,5.3,0,5.3-5.2,5.3c-6.1,0-12.2-0.1-18.3,0c-1.7,0-2.4-0.4-2.1-2.2
		c0.9-7.2,1.8-14.3,2.7-21.5c0.5-3.8,0.9-7.6,1.4-11.4c1-7.9,2-15.8,2.9-23.7c0.9-7.7,1.8-15.3,2.5-23c0.4-4.6-1.8-7.9-5.8-10.4
		c-12.8-7.9-25.4-16.1-38.1-24.1c-8.6-5.4-17.3-10.7-25.8-16.2c-5.2-3.3-10.6-6.4-16-9.3c-0.9-0.5-1.9-1-2-2.5
		c-0.2-11.3-1.5-22.6-1.9-33.8c-0.2-6.8-1.9-13.3-3-19.9c-0.8-4.8-1.6-9.6-2.4-14.4c-0.8-4.6-1.7-9.3-2.5-13.9
		c-1.2-6.7-2.5-13.4-3.7-20.1c-0.8-4.7-1.5-9.5-2.5-14.1c-0.6-2.6-0.5-5.3-1.5-7.9c-0.4-1.1-0.1-1.9,1.5-1.9
		c17.3,0.1,34.5,0.1,51.8,0.1c1.7,0,2.7,1,3.8,2c6.1,5.6,12.2,11.3,18.3,16.9c8.8,8.1,17.5,16.4,26.5,24.2
		c6.1,5.3,11.8,11,17.9,16.3c1.4,1.2,1.9,2.6,1.9,4.4c-0.1,34,0,68,0,101.9C480.8,666,480.8,666,480.7,666z"/>
	<path class="st2" d="M503.9,671.7c0-31.5,0-62.9,0-94.4c0-4.5-0.7-9.1-0.5-13.6c0.1-1.4,0.3-2.5,1.4-3.4
		c10.2-9.2,20.5-18.4,30.6-27.7c7.7-7.1,15.4-14.3,23.1-21.5c3.6-3.3,7.2-6.6,10.8-9.9c0.8-0.7,1.7-0.9,2.7-0.9
		c17.3,0,34.6,0,51.8-0.1c1.4,0,1.8,0.3,1.6,1.8c-1.7,9-3.2,18.1-4.9,27.1c-1.9,10.6-4,21.2-5.9,31.8c-1.2,6.9-2.2,13.8-3.4,20.6
		c-2.5,14.2-2.2,28.5-2.7,42.8c-0.1,1.6-0.5,2.7-1.9,3.6c-9.1,5.8-18,12-27.3,17.4c-16.2,9.4-31.7,20-47.8,29.6
		c-2.2,1.3-4.3,2.7-6.3,4.1c-3.9,2.7-5.3,6.6-4.8,11.2c0.8,7.5,1.6,15,2.5,22.5c0.8,6.9,1.8,13.7,2.6,20.6
		c0.9,7.6,1.7,15.2,2.6,22.8c0.5,4,1,8.1,1.7,12.1c0.3,1.8,0,2.4-2,2.4c-6.9-0.1-13.9-0.2-20.8,0c-2.3,0.1-2.8-0.7-2.8-2.9
		C503.9,735.7,503.9,703.7,503.9,671.7z"/>
	<path class="st2" d="M594.9,903.6c-3.2-3.6-6.4-7.3-9.6-10.9c-4.2-4.8-8.3-9.6-12.4-14.5c-0.5-0.6-0.8-1.3-1.4-1.7
		c-7-5.3-6.3-13.2-7.3-20.6c-0.8-5.9-1.9-11.7-2.6-17.6c-1.1-8.5-2.8-17-3.6-25.6c-0.6-5.7-1.7-11.4-2.4-17.2
		c-0.6-4.7-1.1-9.4-1.7-14c-0.7-5.5-1.5-11.1-2.3-16.6c-0.7-5-1.4-10-1.8-15c-0.7-7.6-1.8-15.2-2.7-22.7c-0.9-7.5-1.8-15-2.6-22.6
		c-0.3-2.8-1-5.4-1.1-8.2c-0.1-1.8,0.5-2.9,2-3.7c5-3,10-6.1,14.9-9.3c13.7-8.7,27.5-17.4,41.2-26c1.2-0.8,2.8-2.4,3.7-1.8
		c1.2,0.8,0.3,2.8,0.2,4.3c-0.5,8.4-1.1,16.7-1.6,25.1c-0.7,9.6-1.3,19.2-1.9,28.7c-0.5,9.2-1.1,18.4-1.6,27.6
		c-0.9,16.7-2.1,33.5-3.2,50.2c-0.3,5.5-0.4,11.1-0.6,16.6c-1.1,31.3-1.2,62.6-1,93.9C595.5,902.4,595.7,903.1,594.9,903.6z"/>
	<path class="st2" d="M389.7,903.3c-0.8-0.6-0.5-1.4-0.5-2.1c0-22,0.5-44-0.2-66c-0.4-14.4-0.8-28.8-1.6-43.2
		c-0.5-8-1-16.1-1.5-24.1c-0.5-8-1-16.1-1.6-24.1c-1.3-17.8-2.4-35.6-3.3-53.4c-0.4-7.3-1.2-14.6-1.3-21.9
		c-0.1-3.9-0.8-7.8-0.9-11.7c0-0.5-0.3-1.2,0.4-1.5c0.5-0.2,0.9,0.3,1.3,0.5c15.9,10,31.9,20.1,47.8,30.1c3.8,2.4,7.5,4.8,11.3,7.1
		c1.1,0.7,1.6,1.4,1.4,2.8c-1,7.2-2.1,14.3-2.8,21.5c-0.6,6.8-1.5,13.6-2.4,20.3c-1.1,8.1-1.4,16.2-2.8,24.2
		c-0.6,3.3-0.7,6.6-1.2,9.9c-1.5,11.5-2.6,23.1-4.5,34.6c-1.7,10.6-3.1,21.2-4.8,31.8c-1.4,8.5-2.3,17.1-3.4,25.6
		c-0.6,4.1-1.7,7.7-4.8,11c-7.9,8.6-15.4,17.7-23,26.6C391,902.1,390.6,903,389.7,903.3z"/>
	<path class="st2" d="M218.8,492c4.6,3.5,9.1,7,13.7,10.5c6.8,5.2,13.6,10.3,20.4,15.5c5.1,3.9,10.1,7.9,15.2,11.7
		c6.2,4.7,12.4,9.4,18.7,14.1c6.7,5.1,13.3,10.2,19.9,15.2c6.7,5.1,13.3,10.1,20,15.2c2.1,1.6,4.1,3.2,6.2,4.7
		c0.5,0.4,1,0.8,0.7,1.4c-0.2,0.5-0.8,0.5-1.3,0.5c-8.9,1.1-17.7,2.2-26.6,3.4c-7.9,1-15.8,2.2-23.6,3.3c-1.2,0.2-1.8,0-2.5-1.1
		c-9.8-14.9-19.6-29.9-29.2-44.9c-9.9-15.4-20.1-30.7-30.1-46.1c-0.7-1-1.2-2-1.8-3.1C218.5,492.3,218.7,492.1,218.8,492z"/>
	<path class="st2" d="M766.3,492.4c-2,3.2-4.1,6.3-6.1,9.5c-4.9,7.6-9.9,15.1-14.8,22.6c-5.6,8.6-11.3,17.3-16.9,25.9
		c-4.8,7.3-9.6,14.7-14.3,22.1c-3.1,4.8-6.2,9.5-9.3,14.3c-0.5,0.7-1,0.9-1.8,0.8c-10.4-1.5-20.8-3-31.1-4.4
		c-6.2-0.8-12.4-1.6-18.6-2.4c-0.8-0.1-1.9,0.2-2.2-0.6c-0.3-0.9,0.7-1.4,1.3-1.8c5.3-4,10.7-8,16-12c4.9-3.7,9.8-7.6,14.7-11.3
		c8.3-6.3,16.6-12.6,24.9-18.9c6.4-4.9,12.8-9.8,19.2-14.6c9.6-7.3,19.3-14.6,28.9-21.9C759.2,497,762.4,494.4,766.3,492.4z"/>
	<path class="st2" d="M534.2,477.7c0-1.8,1.2-3.1,1.9-4.6c3.4-7.6,6.7-15.2,10.1-22.7c2.9-6.2,5.6-12.5,8.4-18.7
		c2.8-6.3,5.6-12.5,8.3-18.7c4.1-9.4,8.3-18.7,12.4-28c2.9-6.4,5.7-12.8,8.5-19.2c2.8-6.3,5.5-12.7,8.5-19c0.1-0.2,0.3-0.4,0.5-0.8
		c1.6,3.1,3.3,6,4.7,9c0.7,1.6,0,3.3-0.5,5c-1.3,4.4-2.5,8.8-3.8,13.2c-1.1,3.9-2.2,7.7-3.3,11.6c-1.3,4.3-2.6,8.6-3.9,13
		c-1.3,4.4-2.6,8.8-3.9,13.2c-1.2,4-2.3,8-3.4,12.1c-1.6,5.6-3.2,11.3-4.9,16.9c-1.5,5.2-3.1,10.3-4.5,15.5
		c-1.6,5.6-3,11.3-4.9,16.8c-0.6,1.8-0.8,3.8-1.6,5.6C553.4,477.7,543.8,477.7,534.2,477.7z"/>
	<path class="st2" d="M433.3,477.7c-1.5-3.6-2.1-7.6-3.3-11.3c-1.8-5.4-3.4-10.8-4.9-16.2c-1.9-6.6-3.7-13.2-5.6-19.8
		c-1.1-4-2.3-7.9-3.5-11.9c-1.7-5.8-3.2-11.6-4.9-17.4c-1.1-3.9-2.4-7.8-3.5-11.8c-1-3.3-1.8-6.7-2.7-10c-0.7-2.5-1.5-5.1-2.3-7.6
		c-1.5-5.1-3-10.2-4.6-15.3c-0.2-0.5-0.1-1,0.2-1.4c2.1-2.8,3.2-6.1,5.1-9.3c2,3.1,3.1,6.4,4.5,9.6c3.8,8.4,7.7,16.7,11.3,25.1
		c2.7,6.2,5.5,12.3,8.2,18.5c4.1,9.5,8.5,18.9,12.7,28.5c2.6,6,5.2,11.9,7.9,17.9c4.7,10.5,9.5,21,14.2,31.5c0.1,0.2,0,0.5-0.1,0.7
		C452.4,477.6,442.9,477.6,433.3,477.7z"/>
	<path class="st2" d="M480.8,944.2c0,1.3,0,1.9,0,2.6c0,3.9-0.3,4-4,2.9c-6.2-1.9-12.5-3.4-18.7-5.1c-4.3-1.1-8.6-2.3-12.9-3.5
		c-6-1.6-12-3.2-18.1-4.8c-5.4-1.4-10.8-3-16.1-4.4c-3.7-1-7.5-2-11.3-2.8c-1.3-0.3-1.6-0.6-0.8-1.7c0.9-1.1,1.7-2.2,2.6-3.2
		c8.4-9.8,16.8-19.6,25.3-29.4c0.3-0.3,0.5-0.6,0.8-0.9c2.2-2.4,2.1-2.4,4.4-0.2c14,13.2,28.1,26.2,41.8,39.7c0.9,0.9,1.9,1.7,3,2.5
		C479.9,938.1,481.8,940.8,480.8,944.2z"/>
	<path class="st2" d="M503.9,943.9c-0.9-3.1,0.9-5.5,3.6-8c8.3-7.6,16.2-15.6,24.5-23.1c6.6-6,12.8-12.3,19.3-18.3
		c0.6-0.6,1.3-1,1.8-1.6c1.1-1.2,2-0.9,3,0.2c8.3,9.7,16.7,19.4,25,29c1.3,1.5,2.6,3.2,3.9,4.7c1,1.1,0.9,1.9-0.6,2.3
		c-4,1.1-8,2.1-12,3.2c-5.8,1.6-11.5,3.2-17.3,4.7c-5.9,1.6-11.7,3.1-17.6,4.7c-4.6,1.2-9.2,2.5-13.8,3.7
		c-5.8,1.5-11.6,3.1-17.3,4.6c-1.9,0.5-2.8,0.1-2.5-2C504,946.9,503.9,945.7,503.9,943.9z"/>
	<path class="st2" d="M480.8,821.6c0,8.7-0.1,17.4,0,26.1c0,2.1-0.7,2.9-2.8,3.3c-5,1-9.8,2.6-14.8,3.7c-6.6,1.5-13.2,3.3-19.7,5.2
		c-1.1,0.3-1.1-0.2-1-1c0.8-5.5,1.5-11.1,2.5-16.6c0.6-3,0.8-6.1,1.3-9.1c1.4-8.8,2.3-17.7,3.5-26.5c0.6-4.2,1.3-8.3,1.9-12.5
		c0.2-1.1,0.7-1.3,1.6-1.3c8.6,0,17.3,0,25.9,0c1.7,0,1.5,1.1,1.5,2.1C480.8,803.9,480.8,812.8,480.8,821.6z"/>
	<path class="st2" d="M542.4,860.2c-7.9-2-15.1-3.9-22.4-5.8c-4.5-1.2-8.9-2.5-13.4-3.4c-2.1-0.4-2.7-1.2-2.7-3.2
		c0.1-12.6,0-25.2,0-37.9c0-4.9,0.1-9.8,0-14.7c0-1.7,0.4-2.4,2.3-2.4c8.1,0.1,16.3,0.1,24.4,0c1.7,0,2.1,0.5,2.3,2.1
		c0.8,6.4,1.8,12.9,2.7,19.3c0.9,6.5,1.7,13.1,2.6,19.6c0.8,5.9,1.7,11.9,2.7,17.8C541.3,854.4,540.9,857.2,542.4,860.2z"/>
	<path class="st2" d="M234.1,473.5c2.7,0.9,5.3,1.8,7.9,2.7c8.7,3,17.3,5.9,26,8.9c10,3.4,19.9,6.8,29.9,10.1
		c2.3,0.8,4.6,1.7,6.9,2.3c1.5,0.3,2.2,1.2,2.8,2.4c7.5,15.4,15.1,30.8,22.6,46.3c0.3,0.6,0.9,1.2,0.3,1.7c-0.7,0.6-1.3-0.2-1.9-0.6
		c-8.1-6.2-16.2-12.5-24.3-18.7c-10.7-8.1-21.4-16.2-32.1-24.3c-6.7-5.1-13.3-10.2-19.9-15.3c-6-4.6-12-9.2-18-13.8
		c-0.4-0.3-1.1-0.5-0.9-1.3C233.5,473.8,233.9,473.7,234.1,473.5z"/>
	<path class="st2" d="M751.4,474.4c-0.5,0.4-1,0.7-1.4,1.1c-5,3.8-9.9,7.6-14.9,11.4c-5.2,3.9-10.4,7.8-15.5,11.8
		c-8.1,6.2-16.1,12.3-24.2,18.5c-6.6,5-13.2,10-19.8,15c-6.5,5-13,10-19.6,14.9c-0.6,0.4-1.3,1.4-2.1,0.7c-0.6-0.6,0.1-1.3,0.4-2
		c5.7-11.4,11.4-22.9,17-34.3c1.9-3.9,3.7-7.8,5.5-11.7c0.6-1.2,1.4-1.8,2.7-2.2c8.8-2.9,17.5-5.8,26.2-8.8c8.7-3,17.4-5.9,26.2-8.9
		c5.7-1.9,11.3-3.9,17-5.8C749.7,473.8,750.5,473.3,751.4,474.4z"/>
	<path class="st2" d="M230.1,448.2c11.6-0.4,23.3-0.8,34.9-1.2c13.2-0.4,26.4-0.9,39.5-1.3c2.9-0.1,2.6-0.1,2.5,2.8
		c-0.3,7-1.3,13.9-1.7,20.9c-0.3,4.4-0.4,4.4-4.5,3c-13.4-4.5-26.8-8.9-40.1-13.5c-9.1-3.1-18.2-6.5-27.4-9.3
		C232.2,449.3,231.5,448,230.1,448.2z"/>
	<path class="st2" d="M754.4,447.6c-4.3,2.7-8.9,3.8-13.4,5.3c-8.2,2.8-16.4,5.6-24.6,8.4c-11.8,4-23.6,8.1-35.4,12.1
		c-1.5,0.5-1.7-0.3-1.7-1.4c0-5.1-0.9-10.2-1.2-15.3c-0.2-3-0.5-6-0.9-9c-0.2-1.5,0.1-2,1.7-2c17.5,0.7,35,1.4,52.5,1.9
		C739,447.8,746.7,447.6,754.4,447.6z"/>
	<path class="st2" d="M636.5,601.1c8.9,1.3,17.3,2.8,25.9,3.7c6.6,0.7,13.2,2,19.8,2.5c0.8,0.1,2-0.3,2.4,0.8
		c0.3,0.9-0.8,1.3-1.3,1.8c-6.1,5.8-12,11.9-18.2,17.6c-5.6,5.1-10.8,10.6-16.1,15.9c-0.2,0.2-0.4,0.2-0.9,0.5
		C644.2,629.8,640.4,615.7,636.5,601.1z"/>
	<path class="st2" d="M346.6,601.3c1.7-0.2,1.1,1,0.9,1.6c-0.9,2.9-1.5,6-2.3,8.9c-1.5,6-3.3,12-5,18c-1.2,4.2-2.3,8.4-3.2,12.7
		c-0.5,2.2-1.4,0.9-2.1,0.2c-5.1-4.8-10.1-9.6-15.1-14.5c-6.2-6.1-12.4-12.2-18.6-18.4c-0.5-0.5-1.4-0.9-1.1-1.7
		c0.3-0.8,1.3-0.6,2-0.7c12.7-1.7,25.4-3.5,38.1-5.2C342.4,601.9,344.6,602.1,346.6,601.3z"/>
	<path class="st2" d="M480.4,908.1c-4.4-3.5-8.1-7.6-12.1-11.2c-4.9-4.5-9.7-9.1-14.6-13.7c-0.6-0.6-1.7-1-1.4-2.1
		c0.3-0.9,1.4-0.6,2.1-0.8c6.3-1.6,12.7-3.2,19-4.9c1.7-0.4,3.4-0.9,5.2-1.3c1.3-0.3,2.1-0.1,2.1,1.6c-0.1,10.6,0,21.2,0,31.8
		C480.8,907.5,480.7,907.6,480.4,908.1z"/>
	<path class="st2" d="M480.3,530.5c-3.3-3.6-7.2-6.6-10.7-9.9c-6.4-6-12.9-12-19.3-18c-0.5-0.5-1.7-0.9-1.3-1.8
		c0.3-0.8,1.3-0.4,2-0.4c9.3,0.1,18.5,0.2,27.8,0.3c1,0,2-0.1,2,1.4c0,9.2,0,18.4-0.1,27.6C480.8,530,480.6,530.1,480.3,530.5z"/>
	<path class="st2" d="M503.9,890.8c0-5,0.1-9.9,0-14.9c-0.1-2.2,0.9-2.3,2.5-1.9c7.9,2,15.8,4.1,23.7,6.1c0.8,0.2,1.7,0.3,2,1.2
		c0.3,0.9-0.8,1.1-1.3,1.6c-5.7,5.4-11.4,10.9-17.1,16.3c-2.7,2.6-5.5,5.1-8.2,7.6c-0.3,0.3-0.6,0.9-1.2,0.6
		c-0.5-0.3-0.4-0.8-0.4-1.3C503.9,901.1,503.9,895.9,503.9,890.8C503.9,890.8,503.9,890.8,503.9,890.8z"/>
	<path class="st2" d="M503.9,515.4c0-4.2,0.1-8.5,0-12.7c0-1.5,0.5-1.9,2-2c9.3-0.3,18.6-0.4,27.8-0.3c0.7,0,1.6-0.4,1.9,0.5
		c0.2,0.7-0.6,1.1-1.1,1.5c-9.7,8.9-19.4,17.9-29.1,26.8c-0.3,0.3-0.6,0.9-1.2,0.6c-0.5-0.2-0.4-0.8-0.4-1.3
		C503.9,524.2,503.9,519.8,503.9,515.4C503.9,515.4,503.9,515.4,503.9,515.4z"/>
	<path class="st2" d="M619.7,793.3c-0.3-2.8,0.1-5.1,0.2-7.5c0.7-11,1.4-22.1,2.1-33.1c0-0.5,0-1,0.1-1.5c0-0.6,0-1.3,0.8-1.3
		c0.6,0,0.7,0.6,0.9,1c2,4.2,3.9,8.4,5.9,12.5c2.4,4.9,4.7,9.8,7.2,14.7c0.7,1.3,0.4,2.1-0.6,2.9
		C630.9,785.1,625.5,789.1,619.7,793.3z"/>
	<path class="st2" d="M362.1,749.7c0.9,14.4,1.9,28.8,2.8,43.4c-2.8-0.9-4.6-3.2-6.9-4.7c-3.4-2.2-6.5-4.9-9.7-7.4
		c-0.9-0.7-1.4-1.4-0.7-2.7c4.7-9.6,9.2-19.2,13.8-28.7C361.7,749.6,361.9,749.6,362.1,749.7z"/>
	<path class="st2" d="M327.1,477c6.4,10,9.5,21.1,10.5,32.6c-2.3-4.7-4.7-9.6-7.1-14.4c-0.3-0.6-0.5-1.2-0.9-1.8
		C326,488.4,326.5,482.7,327.1,477z"/>
	<path class="st2" d="M656.8,477.6c1.1,3.4,2,6.9,0.7,10c-3.1,7.4-6.8,14.5-10.4,21.7C647.9,498.1,651,487.6,656.8,477.6z"/>
	<path class="st2" d="M351.1,697c2.3,2.8,3.6,5.8,5.9,8.1c0.9,0.9,0.2,1.8-0.2,2.7c-2.5,5.1-5,10.2-7.9,15.2
		C349.6,714.4,350.3,705.9,351.1,697z"/>
	<path class="st2" d="M635.6,723.5c-3.1-4.7-4.8-10.3-7.6-15.4c-0.8-1.5-1-2.8,0.3-4.1c1.9-2,3-4.7,5.4-6.7
		C633.9,706.3,635.1,715,635.6,723.5z"/>
	<path class="st2" d="M356.6,666.2c-4.1-3.3,0.2-6.5,0-9.7C356.6,659.7,356.6,662.8,356.6,666.2z"/>
	<path class="st2" d="M628.3,657.9c0.2,2.7,2.9,5.4-0.3,8.3C627.7,663.2,627.9,660.5,628.3,657.9z"/>
	<path class="st2" d="M784.4,321c-0.7,1-1.8,0.9-2.7,1c-8.7,1.2-17.4,2.4-26.1,3.6c-5.8,0.8-11.6,1.8-17.3,2.6
		c-6.5,0.9-13,1.7-19.5,2.6c-5.7,0.8-11.4,1.5-17.1,2.5c-3.1,0.5-6.1,0.8-9.2,1.3c-8.8,1.4-17.7,2.3-26.6,3.6
		c-8.6,1.2-17.2,2.6-25.8,3.8c-9.1,1.3-18.2,2.4-27.3,3.7c-1,0.1-1.5-0.2-1.9-1c-1.7-3-3.3-6.1-5.1-9.1c-0.7-1.2-0.5-1.3,0.8-1.6
		c3.9-1,7.9-1,11.9-1.5c8-1.1,16-1.7,24-2.6c6.8-0.8,13.6-1.6,20.3-2.5c3.5-0.5,7.1-0.8,10.7-1.1c8.1-0.8,16.1-2,24.2-2.6
		c6.1-0.5,12.2-1.5,18.4-2.2c6.1-0.7,12.1-1.4,18.2-2c7-0.6,13.9-1.7,20.8-2.5c6.8-0.8,13.6-1.6,20.4-2.4c1-0.1,1.8,0.1,2.5,0.7
		C780,317.2,782.2,319.1,784.4,321z"/>
	<path class="st2" d="M861.1,244c-0.2,0.3-0.5,0.5-0.7,0.8c-13.4,16.5-26.7,33-40.1,49.5c-5.2,6.4-10.3,12.8-15.4,19.3
		c-1.2,1.5-2.1,1.8-3.7,0.4c-3-2.8-6.1-5.4-9.2-8c-1.1-0.9-1.1-1.6-0.2-2.8c9.4-12.3,18.7-24.6,28-36.9c6.4-8.4,12.8-16.8,19.3-25.1
		c1.2-1.6,1.9-4,3.8-4.6c1.9-0.6,3.7,1.3,5.6,1.9c3.7,1.2,7.4,2.8,11,4.3C860.1,242.9,860.7,243.2,861.1,244z"/>
	<path class="st2" d="M883,146.9c-0.3,1.7-0.6,3.4-1,5.2c-1.3,7.1-2.8,14.1-3.9,21.2c-0.7,4.7-1.5,9.5-2.4,14.1
		c-1.4,7.1-2.4,14.2-3.8,21.3c-0.9,4.6-1.5,9.3-2.4,13.9c-0.2,1.2-0.6,2.4-0.7,3.6c-0.2,2.8-1.3,2.7-3.4,1.7
		c-4.3-2.2-8.9-3.6-13.4-5.3c-1.1-0.4-1.2-1-0.7-2c4.4-9.8,8.4-19.8,12.7-29.7c3.9-8.9,7.5-17.9,11.3-26.9
		C877.8,158.2,880.3,152.5,883,146.9z"/>
	<path class="st2" d="M730.7,242.4c0,13.7,0,26.8,0,40c0,6-0.2,12,0.1,18.1c0.1,2.7-0.9,3.2-3.2,3.3c-4.6,0.2-4.6,0.3-4.6-4.3
		c-0.1-16.3-0.1-32.5-0.2-48.8c0-1.6,0.2-2.7,1.8-3.6C726.6,245.8,728.4,244.2,730.7,242.4z"/>
	<path class="st2" d="M827.6,170.5c0.7,0,1,0.4,1.3,0.9c4.9,7.6,9.7,15.1,14.7,22.6c1,1.5,0.1,2.7-0.3,3.8c-1.1,3.1-2.6,6-3.9,9.1
		c-0.5,1.3-1.2,1.4-1.8,0.4c-6.5-10.1-12.9-20.2-19.4-30.3c-0.7-1-0.4-1.4,0.4-1.9c2.8-1.5,5.7-3,8.6-4.5
		C827.3,170.6,827.5,170.6,827.6,170.5z"/>
	<path class="st2" d="M812,115.2c0.3,4.3,1.8,7.9,2.4,11.7c0.5,3.4,1.6,6.7,2.5,10.1c0.9,3.5,1.8,7,2.6,10.5
		c0.5,2.1,0.9,4.3,1.6,6.3c0.4,1.2,0.3,1.7-1,2.1c-1.6,0.6-3.2,1.5-4.7,2.5c-1.5,0.9-2,0.9-2.2-1.1c-0.8-7.3-0.7-14.6-1-22
		c-0.2-5.4-0.6-10.9-0.9-16.3C811.3,117.9,811,116.7,812,115.2z"/>
	<path class="st2" d="M722.7,227.9c-2.6,1.9-4.8,3.4-6.8,5c-1,0.9-1.7,0.9-2.7,0.1c-8.3-6.9-17.2-13.1-25.8-19.6
		c-0.7-0.6-1.4-1.3-2.6-2.3C698,216.4,710.1,222.3,722.7,227.9z"/>
	<path class="st2" d="M220.6,314.5c7.1,1.3,14.4,1.5,21.5,2.7c3.3,0.6,6.8,0.8,10.2,1.1c10.9,1,21.8,2.4,32.7,3.6
		c12.3,1.3,24.5,2.8,36.8,4.1c12.2,1.3,24.4,2.8,36.6,4.2c9,1,18.1,2,27.1,3.1c1.8,0.2,4.3,0.1,5,1.1c0.8,1.2-1.3,2.8-2.1,4.2
		c-0.3,0.6-0.5,1.2-0.9,1.7c-3.2,6-3.5,6-10.3,4.6c-3.7-0.8-7.5-1.1-11.3-1.7c-6.3-0.9-12.7-1.8-19-2.7c-6-0.8-12.1-1.6-18.1-2.6
		c-6.5-1-13-1.8-19.5-2.8c-5.7-0.9-11.4-1.6-17.1-2.4c-6.8-1-13.5-1.8-20.3-2.8c-6.1-0.8-12.2-1.6-18.3-2.6
		c-8.8-1.4-17.7-2.3-26.5-3.8c-4.3-0.8-8.7-1.1-13-1.6c-0.8-0.1-1.8,0-2.1-0.8c-0.4-1,0.9-1.2,1.4-1.7c1.5-1.4,3.2-2.8,4.8-4.1
		C218.8,314.8,219.5,314.2,220.6,314.5z"/>
	<path class="st2" d="M193.3,315.2c-0.8,0-1.1-0.6-1.4-1c-8.3-10.3-16.6-20.6-25-30.9c-4.9-6.1-9.9-12.1-14.8-18.2
		c-5.3-6.5-10.5-13-15.9-19.5c-1.3-1.5-1.1-2.5,0.7-3.2c4.9-1.9,9.9-3.8,14.8-5.8c1.2-0.5,1.8-0.3,2.4,0.6
		c4.8,6.4,9.5,12.8,14.3,19.1c3.9,5.1,7.9,10.2,11.7,15.3c7.3,9.6,14.6,19.1,21.7,28.8c3.4,4.5,3.3,4.6-1.1,8.4
		c-2.1,1.8-4.2,3.6-6.3,5.4C194.2,314.6,193.7,314.9,193.3,315.2z"/>
	<path class="st2" d="M113.6,146.8c1.8,4.1,3.4,8.1,5.1,12.1c3.4,8.1,6.7,16.2,10.1,24.3c2.5,5.9,5.1,11.7,7.6,17.5
		c2.8,6.5,5.5,13,8.3,19.5c0.7,1.5-0.3,1.9-1.3,2.3c-4.8,1.9-9.7,3.8-14.5,5.8c-1.2,0.5-1.1-0.2-1.4-0.9c-1-2.6-1.1-5.4-1.5-8.1
		c-1.1-7.1-2.5-14.2-3.7-21.3c-1.2-6.7-2.2-13.4-3.7-20.1c-1-4.8-1.6-9.8-2.4-14.6c-0.8-4.8-1.8-9.5-2.8-14.3
		C113.3,148.3,113,147.6,113.6,146.8z"/>
	<path class="st2" d="M265.5,242.5c2.6,1.9,4.9,3.6,7.2,5.2c0.8,0.6,0.8,1.4,0.8,2.2c0,17.4,0,34.8,0,52.2c0,1.7-0.5,2.3-2.1,1.7
		c-0.1,0-0.2,0-0.2,0c-1.8-0.2-4.3,0.6-5.3-0.8c-0.9-1.3-0.3-3.6-0.3-5.5C265.5,279.3,265.5,261.1,265.5,242.5z"/>
	<path class="st2" d="M157.3,208.7c-1.5-4.3-3.1-8.3-5-12.1c-0.5-1.1-0.3-1.7,0.3-2.6c4.9-7.4,9.8-14.9,14.6-22.4
		c0.6-0.9,1-1.4,2.1-0.8c2.6,1.4,5.3,2.7,7.9,4.1c0.9,0.5,1.7,0.9,0.7,2.4c-4.4,6.5-8.6,13.2-12.8,19.8c-2.1,3.2-4.1,6.4-6.1,9.6
		C158.5,207.4,158.1,208.1,157.3,208.7z"/>
	<path class="st2" d="M184.3,115.2c1,0.9,0.7,1.9,0.6,2.7c-1.2,13.1-0.8,26.4-2,39.5c-0.1,1.7-0.5,2-2,1.1c-1.7-1-3.4-1.9-5.2-2.7
		c-0.7-0.3-1.2-0.6-1-1.4c1.5-4.6,2.4-9.3,3.5-14c1.2-5,2.5-10,3.6-15.1C182.7,122,184,118.8,184.3,115.2z"/>
	<path class="st2" d="M311.4,211.3c-5.5,4.2-10.7,8.1-15.8,12c-4.1,3.1-8.2,6.1-12.2,9.3c-1.4,1.1-2.4,1.2-3.7,0.1
		c-1.6-1.3-3.2-2.6-4.9-3.7c-1.9-1.2-0.4-1.8,0.4-2.1c2.3-1.2,4.7-2,7-3.1c9.2-4.3,18.5-8.5,27.8-12.7
		C310.3,211.1,310.5,211.2,311.4,211.3z"/>
</g>
</svg>
